<svg width="129" height="42" viewBox="0 0 129 42" fill="none" xmlns="http://www.w3.org/2000/svg">
<path fill-rule="evenodd" clip-rule="evenodd" d="M122.853 21.1892H123.326C123.326 21.1892 128.905 21.2838 129 28.473C129 35.3784 122.096 41.2432 113.963 41.2432C112.639 41.2432 101.668 40.8649 100.817 27.7162C98.6415 27.6216 94.9531 27.2432 91.8321 25.9189C88.7111 33.5811 83.8878 39.6351 80.956 39.6351C78.0242 39.6351 75.5653 35.8514 73.5792 28.5676L73.39 27.8108C69.607 34.2432 64.4054 39.5405 61.8519 39.5405C58.8255 39.5405 55.1371 36.0405 55.1371 32.7297C55.1371 29.4189 56.1774 21.473 56.1774 21.473C56.1774 21.473 53.4348 22.0405 49.4626 22.6081C48.706 26.3919 44.5447 42 28.2779 42C8.89003 42 0 21 0 21C2.15139 19.6709 4.82139 16.881 7.81173 13.7563C13.7603 7.54043 20.9765 0 27.8996 0C38.3028 0 41.9912 12.8649 41.9912 12.8649L41.14 14.2838C41.14 14.2838 37.7353 9.93243 29.8856 9.93243C23.8896 9.93243 19.3483 15.3211 16.0582 19.2249C14.9892 20.4934 14.0523 21.6052 13.2405 22.3243C13.2405 22.3243 21.4685 35.2838 32.1554 35.2838C37.8299 35.2838 43.9773 30.3649 47.4765 22.8919C41.4238 23.7432 33.4795 24.5 27.8996 23.8378C27.8996 23.8378 27.6158 23.5541 27.5213 23.2703C27.3321 22.8919 27.3321 22.5135 27.3321 22.5135C47.0982 22.5135 61.9465 14.2838 63.2705 13.4324C63.3651 13.3378 63.4597 13.3378 63.5543 13.3378C64.8279 13.6453 64.164 17.992 63.4662 22.5601C62.6615 27.8288 61.8118 33.3919 63.838 33.3919C65.9186 33.3919 70.0799 26.9595 72.4443 23.0811C71.6246 18.9189 70.805 15.009 70.3496 12.8368C70.1219 11.7508 69.9853 11.0991 69.9853 11.0676V10.7838L70.1745 10.6892C70.2691 10.5946 74.3358 8.98649 76.8893 8.98649C78.7808 8.98649 79.9157 10.027 79.9157 11.8243C79.9157 12.9595 79.3483 15.3243 78.3079 18.1622C78.9512 24.1941 81.0985 29.8158 82.1342 32.5273C82.3167 33.0049 82.4646 33.3923 82.5638 33.6757L82.5877 33.6474C83.6526 32.3887 86.8339 28.6286 88.7112 24.2162C86.5359 22.5135 85.4956 20.1486 85.4956 17.3108C85.4956 12.5811 88.1437 10.1216 90.6972 10.1216C92.4941 10.1216 94.3856 11.3514 94.3856 14.0946C94.3856 16.0811 94.1019 18.2568 93.5345 20.6216C95.0477 22.0405 97.5066 23.5541 100.817 23.6486C101.479 16.8378 104.789 7.09459 111.315 7.09459C118.218 7.09459 119.259 12.8649 119.259 16.3649C119.259 21.1892 114.908 25.3514 108.194 26.9595C108.383 32.4459 109.896 37.2703 113.963 37.2703C116.516 37.2703 118.597 36.2297 120.205 34.2432C123.042 30.8378 123.704 25.3514 122.947 21.6622L122.853 21.1892ZM108.383 22.2296C113.301 20.054 113.395 15.7972 113.395 15.7026C113.395 12.9594 112.26 11.3513 111.22 11.2567C110.274 11.2567 108.856 16.4594 108.383 22.2296Z" fill="#66BB6A"/>
<path d="M56.6501 10.5C56.6501 10.6892 56.7447 10.7838 56.9338 10.8784C60.8114 11.446 63.3649 10.2163 63.3649 3.97302C63.3649 -1.89184 57.3121 2.74329 56.1772 3.59464C56.0826 3.68923 56.0826 3.78383 56.0826 3.97302C57.123 6.24329 56.8392 9.5541 56.6501 10.5" fill="#66BB6A"/>
<mask id="mask0" mask-type="alpha" maskUnits="userSpaceOnUse" x="100" y="26" width="11" height="11">
<path fill-rule="evenodd" clip-rule="evenodd" d="M104.505 27.6231C102.614 27.8123 100.817 27.7177 100.817 27.7177C101.1 31.5015 102.088 34.0526 103.506 36.0391L110.41 35.4715C108.944 33.556 108.331 30.6886 108.194 26.9595C108.194 26.9595 106.302 27.4339 104.505 27.6231Z" fill="white"/>
</mask>
<g mask="url(#mask0)">
<path d="M111.409 35.946L110.274 25.8244L99.7764 27.0541L100.911 37.1757L111.409 35.946Z" fill="url(#paint0_linear)"/>
</g>
<mask id="mask1" mask-type="alpha" maskUnits="userSpaceOnUse" x="100" y="15" width="10" height="9">
<path d="M108.383 22.2315C106.92 23.1325 102.377 23.7713 100.817 23.6487C101.046 21.5267 101.503 18.5951 102.708 15.419C103.629 15.2011 107.816 15.1946 109.085 16.9891C108.811 18.4557 108.691 19.3586 108.592 20.1503C108.51 20.8291 108.45 21.4264 108.383 22.2315Z" fill="white"/>
</mask>
<g mask="url(#mask1)">
<rect x="100.722" y="15.3198" width="8.36269" height="8.34394" fill="url(#paint1_linear)"/>
</g>
<mask id="mask2" mask-type="alpha" maskUnits="userSpaceOnUse" x="66" y="23" width="8" height="12">
<path fill-rule="evenodd" clip-rule="evenodd" d="M66.6295 31.409C67.1024 32.5442 67.6137 33.8618 68.1811 34.997C69.1121 33.9217 70.1354 32.7171 71.3435 30.9767C72.0562 29.95 72.798 28.7679 73.3901 27.8108L72.4481 23.0766C70.9334 25.6521 68.3585 29.5652 66.6295 31.409Z" fill="white"/>
</mask>
<g mask="url(#mask2)">
<path d="M67.2427 37.081L76.9839 33.7702L72.7281 21L62.9869 24.3108L67.2427 37.081Z" fill="url(#paint2_linear)"/>
</g>
<mask id="mask3" mask-type="alpha" maskUnits="userSpaceOnUse" x="84" y="24" width="8" height="11">
<path fill-rule="evenodd" clip-rule="evenodd" d="M84.2662 31.5901C84.9283 32.5361 86.1577 33.7703 87.0089 34.7162C87.7022 33.7531 88.4449 32.6324 89.1575 31.3832C90.1817 29.5877 91.1271 27.6159 91.8322 25.9189C91.8322 25.9189 90.9012 25.593 90.1402 25.1533C89.3792 24.7135 88.7142 24.2184 88.7142 24.2184C87.3769 27.2853 85.6405 29.8239 84.2662 31.5901Z" fill="white"/>
</mask>
<g mask="url(#mask3)">
<path d="M90.0351 37.9325L96.3716 26.6758L86.1576 20.9055L79.821 32.0677L90.0351 37.9325Z" fill="url(#paint3_linear)"/>
</g>
<mask id="mask4" mask-type="alpha" maskUnits="userSpaceOnUse" x="77" y="11" width="3" height="8">
<path fill-rule="evenodd" clip-rule="evenodd" d="M77.4567 12.2972C77.4567 12.2972 77.5512 14 78.3078 18.1621C79.3482 15.2297 79.9067 12.9779 79.9067 11.8428C79.9067 11.7482 79.9067 11.6536 79.9067 11.559L77.4567 12.2972Z" fill="white"/>
</mask>
<g mask="url(#mask4)">
<path d="M78.1185 10.4054L74.4301 16.2703L79.2534 19.2027L82.9418 13.3378L78.1185 10.4054Z" fill="url(#paint4_linear)"/>
</g>
<mask id="mask5" mask-type="alpha" maskUnits="userSpaceOnUse" x="91" y="14" width="4" height="7">
<path fill-rule="evenodd" clip-rule="evenodd" d="M91.4521 16.1771C91.4521 16.1771 90.7901 18.1636 93.5328 20.6231C94.0057 18.6366 94.2702 16.7469 94.3699 14.9511L91.4521 16.1771Z" fill="white"/>
</mask>
<g mask="url(#mask5)">
<path d="M91.0752 13.9053L89.4674 20.1486L94.1961 21.3783L95.8985 15.2297L91.0752 13.9053Z" fill="url(#paint5_linear)"/>
</g>
<mask id="mask6" mask-type="alpha" maskUnits="userSpaceOnUse" x="40" y="22" width="10" height="12">
<path fill-rule="evenodd" clip-rule="evenodd" d="M47.4744 22.8918C45.7196 26.6608 43.4513 29.5947 40.7101 31.8266L44.7369 33.652C46.8648 30.6663 47.9436 27.895 48.7061 25.5405L49.111 24.1112L49.4656 22.6036L47.4744 22.8918Z" fill="white"/>
</mask>
<g mask="url(#mask6)">
<path d="M41.471 23.1579L49.8645 22.4189L49.4507 33.918L40.5725 33.581L41.471 23.1579Z" fill="url(#paint6_linear)"/>
</g>
<defs>
<linearGradient id="paint0_linear" x1="109.428" y1="34.2557" x2="108.703" y2="27.4894" gradientUnits="userSpaceOnUse">
<stop stop-color="#66BB6A"/>
<stop offset="1" stop-color="#378F43"/>
</linearGradient>
<linearGradient id="paint1_linear" x1="101.47" y1="20.2964" x2="101.47" y2="27.2866" gradientUnits="userSpaceOnUse">
<stop stop-color="#66BB6A"/>
<stop offset="1" stop-color="#378F43"/>
</linearGradient>
<linearGradient id="paint2_linear" x1="68.0845" y1="33.6176" x2="74.5446" y2="31.9859" gradientUnits="userSpaceOnUse">
<stop stop-color="#66BB6A"/>
<stop offset="1" stop-color="#378F43"/>
</linearGradient>
<linearGradient id="paint3_linear" x1="89.9062" y1="33.6288" x2="93.7402" y2="27.2571" gradientUnits="userSpaceOnUse">
<stop stop-color="#66BB6A"/>
<stop offset="1" stop-color="#378F43"/>
</linearGradient>
<linearGradient id="paint4_linear" x1="78.1938" y1="13.7073" x2="77.0823" y2="15.3648" gradientUnits="userSpaceOnUse">
<stop stop-color="#66BB6A"/>
<stop offset="1" stop-color="#378F43"/>
</linearGradient>
<linearGradient id="paint5_linear" x1="91.7371" y1="17.1754" x2="90.9515" y2="19.3867" gradientUnits="userSpaceOnUse">
<stop stop-color="#66BB6A"/>
<stop offset="1" stop-color="#378F43"/>
</linearGradient>
<linearGradient id="paint6_linear" x1="48.4193" y1="31.4343" x2="48.4193" y2="22.9812" gradientUnits="userSpaceOnUse">
<stop stop-color="#66BB6A"/>
<stop offset="1" stop-color="#378F43"/>
</linearGradient>
</defs>
</svg>
