<svg width="184" height="42" viewBox="0 0 184 42" fill="none" xmlns="http://www.w3.org/2000/svg">
<path d="M7.86305 20.4626C8.09726 19.9566 8.35148 19.4786 8.60231 19.1082C9.71222 17.3142 10.8527 15.5215 12.0022 13.7407C12.0042 13.7371 12.0062 13.7344 12.0082 13.7312C13.9213 13.9829 16.2518 14.4848 18.5017 15.1327L18.5257 15.1388C17.9917 15.3222 17.4595 15.5131 16.9333 15.7084C13.4468 17.0054 10.3463 18.6482 7.85834 20.4761L7.86305 20.4626" fill="white"/>
<path d="M35.1162 23.349C35.8471 26.6596 35.5579 30.1823 34.0172 33.271C32.9695 35.3702 31.3917 37.2047 29.4525 38.5765C26.995 40.3153 23.9877 41.286 20.9856 41.3112C20.9435 41.3112 20.9016 41.3112 20.8589 41.3112C18.6186 41.3112 16.476 40.809 14.4889 39.8171C13.7726 39.4606 13.0826 39.0396 12.4387 38.5704C9.5183 36.4341 7.5036 33.2642 6.76434 29.6428C6.30833 27.4096 6.39082 25.1532 6.93081 23.0166L6.92681 23.0345C9.52194 20.7222 13.2159 18.5814 17.4198 17.0179C18.5634 16.5919 19.7039 16.2033 20.8301 15.8488L20.8284 15.8551C22.4296 16.3867 24.0687 17.0011 25.7116 17.6887C29.4416 19.2486 32.7056 21.2378 35.126 23.3465L35.1162 23.349" fill="white"/>
<path d="M29.9049 13.7212C31.0629 15.512 32.2161 17.3108 33.3504 19.1022C33.6631 19.5953 33.9787 20.2226 34.2547 20.8518H34.2577C32.0095 19.1966 29.2905 17.6707 26.2509 16.3994C25.1794 15.9512 24.0851 15.5272 22.987 15.1313L22.9883 15.1242C23.1383 15.0812 23.296 15.0366 23.4623 14.9936C25.4727 14.4643 27.3705 14.0395 29.0937 13.8129C29.3756 13.7776 29.6473 13.7453 29.909 13.7194L29.9049 13.7212Z" fill="white"/>
<path d="M12.8379 12.4508L13.2446 11.8234C14.3126 10.183 15.3828 8.55445 16.4388 6.94887C17.7397 4.97033 19.0854 2.92444 20.3927 0.904719L20.9796 -1.47148e-05L21.6024 0.962062C22.8928 2.95425 24.2123 4.97625 25.4891 6.93066C26.5625 8.57493 27.6501 10.244 28.7403 11.9229L29.0578 12.4123L29.0559 12.4144C26.6637 12.7168 23.9256 13.3293 21.1439 14.2256C21.0029 14.2712 20.8626 14.3167 20.7246 14.3635L20.7227 14.3683L20.1552 14.1808C17.5933 13.3844 15.0823 12.7796 12.8374 12.4508H12.8379" fill="white"/>
<path d="M11.8438 27.388C11.6854 25.1032 12.4256 21.9881 13.5529 18.7206C11.469 19.7466 9.56546 20.9058 7.93075 22.1353C5.93358 27.8484 7.9383 34.4146 12.8503 38.0052C13.4569 38.4491 14.1079 38.8473 14.8003 39.1932C16.7718 40.176 18.8874 40.6309 20.9795 40.6124C20.9795 40.6124 12.3884 35.2441 11.8438 27.388" fill="#E9E9E9"/>
<path d="M16.1053 12.3415C18.6414 6.6526 21.3635 1.87658 21.3635 1.87658L20.9795 1.28404C18.696 4.80945 16.368 8.31302 14.0725 11.8353L16.1053 12.3415Z" fill="#E9E9E9"/>
<path d="M12.7746 13.8356C11.755 15.4135 10.7434 16.9988 9.74905 18.5911L14.5453 16.0442C14.7764 15.4592 15.0445 14.8976 15.2881 14.3176C14.4301 14.1308 13.5703 13.9544 12.7746 13.8356" fill="#E9E9E9"/>
<path d="M8.51035 19.2618V19.2162H8.5331V19.1707H8.55586V19.148H8.57861V19.1025H8.60136V19.057H8.62412V19.0342H8.64687V18.9887H8.66963V18.9432H8.69238V18.9204H8.71514V18.8749H8.73789V18.8294H8.76065V18.8067H8.7834V18.7611H8.80616V18.7384H8.82891V18.6929H8.85167V18.6474H8.87442V18.6246H8.89718V18.5791H8.91993V18.5564H8.94269V18.5108H8.96544V18.4653H8.9882V18.4426H9.01095V18.3971H9.03371V18.3743H9.05646V18.3288H9.07922V18.2833H9.10197V18.2605H9.12473V18.215H9.14748V18.1923H9.17024V18.1468H9.19299V18.124H9.21575V18.0785H9.2385V18.033H9.26126V18.0102H9.28401V17.9647H9.30677V17.942H9.32952V17.8965H9.35228V17.851H9.37503V17.8282H9.39779V17.7827H9.42054V17.7599H9.4433V17.7144H9.46605V17.6689H9.4888V17.6462H9.51156V17.6006H9.53431V17.5779H9.55707V17.5324H9.57982V17.4869H9.60258V17.4641H9.62533V17.4186H9.64809V17.3959H9.67084V17.3503H9.6936V17.3276H9.71635V17.2821H9.73911V17.2366H9.76186V17.2138H9.78462V17.1683H9.80737V17.1456H9.83013V17.1H9.85288V17.0545H9.87564V17.0318H9.89839V16.9863H9.92115V16.9635H9.9439V16.918H9.96666V16.8725H9.98941V16.8497H10.0122V16.8042H10.0349V16.7815H10.0577V16.736H10.0804V16.6905H10.1032V16.6677H10.1259V16.6222H10.1487V16.5994H10.1715V16.5539H10.1942V16.5312H10.217V16.4857H10.2397V16.4402H10.2625V16.4174H10.2852V16.3719H10.308V16.3491H10.3307V16.3036H10.3535V16.2581H10.3762V16.2354H10.399V16.1898H10.4218V16.1671H10.4445V16.1216H10.4673V16.0988H10.49V16.0533H10.5128V16.0306H10.5355V15.9851H10.5583V15.9395H10.581V15.9168H10.6038V15.8713H10.6265V15.8485H10.6493V15.803H10.6721V15.7803H10.6948V15.7347H10.7176V15.6892H10.7403V15.6665H10.7631V15.621H10.7858V15.5982H10.8086V15.5527H10.8313V15.53H10.8541V15.4844H10.8769V15.4617H10.8996V15.4162H10.9224V15.3707H10.9451V15.3479H10.9679V15.3024H10.9906V15.2797H11.0134V15.2341H11.0361V15.2114H11.0589V15.1659H11.0816V15.1204H11.1044V15.0976H11.1272V15.0521H11.1499V15.0293H11.1727V14.9838H11.1954V14.9611H11.2182V14.9156H11.2409V14.8701H11.2637V14.8473H11.2864V14.8018H11.3092V14.779H11.3319V14.7335H11.3547V14.7108H11.3775V14.6653H11.4002V14.6425H11.423V14.597H11.4457V14.5515H11.4685V14.5287H11.4912V14.4832H11.514V14.4605H11.5367V14.415H11.5595V14.3922H11.5823V14.3467H11.605V14.3012H11.6278V14.2784H11.6505V14.2329H11.6733V14.2102H11.696V14.1647H11.7188V14.1419H11.7415V14.0964H11.7643V14.0736H11.787V14.0281H11.8098V13.9826H11.8326V13.9599H11.8553V13.9144H11.8781V13.8916H11.9008V13.8461H11.9236V13.8233H11.9463V13.7778H11.9691V13.7551H11.9918V13.7096H12.0374V13.7323H12.2194V13.7551H12.3787V13.7778H12.538V13.8006H12.6745V13.8233H12.8338V13.8461H12.9703V13.8689H13.1296V13.8916H13.2661V13.9144H13.4254V13.9371H13.5392V13.9826H13.5164V14.0281H13.4937V14.0509H13.4709V14.0964H13.4482V14.1192H13.4254V14.1647H13.4026V14.1874H13.3799V14.2329H13.3571V14.2557H13.3344V14.3012H13.3116V14.3239H13.2889V14.3695H13.2661V14.415H13.2434V14.4377H13.2206V14.4832H13.1978V14.506H13.1751V14.5515H13.1523V14.5743H13.1296V14.6198H13.1068V14.6653H13.0841V14.688H13.0613V14.7335H13.0386V14.7563H13.0158V14.8018H12.9931V14.8246H12.9703V14.8701H12.9475V14.8928H12.9248V14.9383H12.902V14.9838H12.8793V15.0066H12.8565V15.0521H12.8338V15.0749H12.811V15.1204H12.7883V15.1431H12.7655V15.1886H12.7428V15.2341H12.72V15.2569H12.6972V15.3024H12.6745V15.3252H12.6517V15.3707H12.629V15.3934H12.6062V15.4389H12.5835V15.4844H12.5607V15.5072H12.538V15.5527H12.5152V15.5755H12.4924V15.621H12.4697V15.6437H12.4469V15.6892H12.4242V15.712H12.4014V15.7575H12.3787V15.803H12.3559V15.8258H12.3332V15.8713H12.3104V15.894H12.2877V15.9395H12.2649V15.9623H12.2421V16.0078H12.2194V16.0533H12.1966V16.0761H12.1739V16.1216H12.1511V16.1443H12.1284V16.1898H12.1056V16.2126H12.0829V16.2581H12.0601V16.2809H12.0374V16.3264H12.0146V16.3719H11.9918V16.3946H11.9691V16.4402H11.9463V16.4629H11.9236V16.5084H11.9008V16.5312H11.8781V16.5767H11.8553V16.6222H11.8326V16.6449H11.8098V16.6905H11.787V16.7132H11.7643V16.7587H11.7415V16.7815H11.7188V16.827H11.696V16.8725H11.6733V16.8952H11.6505V16.9408H11.6278V16.9635H11.605V17.009H11.5823V17.0318H11.5595V17.0773H11.5367V17.1H11.514V17.1456H11.4912V17.1911H11.4685V17.2138H11.4457V17.2593H11.423V17.2821H11.4002V17.3276H11.3775V17.3503H11.3547V17.3959H11.3319V17.4414H11.3092V17.4641H11.2864V17.5096H11.2637V17.5324H11.2409V17.5779H11.2182V17.6006H11.1954V17.6462H11.1727V17.6917H11.1499V17.7144H11.1272V17.7599H11.1044V17.7827H11.0816V17.8282H11.0589V17.851H11.0361V17.8965H11.0134V17.942H10.9906V17.9647H10.9451V17.9875H10.8996V18.0102H10.8541V18.033H10.8086V18.0557H10.7631V18.0785H10.7176V18.1013H10.6948V18.124H10.6493V18.1468H10.6038V18.1695H10.5583V18.1923H10.5128V18.215H10.4673V18.2378H10.4218V18.2605H10.3762V18.2833H10.3307V18.3061H10.308V18.3288H10.2625V18.3516H10.217V18.3743H10.1715V18.3971H10.1259V18.4198H10.0804V18.4426H10.0349V18.4653H9.98941V18.4881H9.96666V18.5108H9.92115V18.5336H9.87564V18.5564H9.83013V18.5791H9.78462V18.6019H9.73911V18.6246H9.6936V18.6474H9.64809V18.6701H9.60258V18.6929H9.57982V18.7156H9.53431V18.7384H9.4888V18.7611H9.4433V18.7839H9.39779V18.8067H9.35228V18.8294H9.30677V18.8522H9.26126V18.8749H9.2385V18.8977H9.19299V18.9204H9.14748V18.9432H9.10197V18.9659H9.05646V18.9887H9.01095V19.0115H8.96544V19.0342H8.91993V19.057H8.89718V19.0797H8.85167V19.1025H8.80616V19.1252H8.76065V19.148H8.71514V19.1707H8.66963V19.1935H8.62412V19.2162H8.57861V19.239H8.5331V19.2618" fill="url(#paint0_linear)"/>
<path d="M27.2603 12.2533V12.2077H27.2376V12.185H27.2148V12.1395H27.1921V12.1167H27.1693V12.0712H27.1466V12.0485H27.1238V12.003H27.1011V11.9802H27.0783V11.9347H27.0556V11.9119H27.0328V11.8664H27.01V11.8437H26.9873V11.7982H26.9645V11.7754H26.9418V11.7299H26.919V11.6844H26.8963V11.6616H26.8735V11.6161H26.8508V11.5934H26.828V11.5479H26.8053V11.5251H26.7825V11.4796H26.7597V11.4568H26.737V11.4113H26.7142V11.3886H26.6915V11.3431H26.6687V11.3203H26.646V11.2748H26.6232V11.2293H26.6005V11.2065H26.5777V11.161H26.5549V11.1383H26.5322V11.0928H26.5094V11.07H26.4867V11.0245H26.4639V11.0017H26.4412V10.9562H26.4184V10.9335H26.3957V10.888H26.3729V10.8652H26.3502V10.8197H26.3274V10.7969H26.3046V10.7514H26.2819V10.7059H26.2591V10.6832H26.2364V10.6377H26.2136V10.6149H26.1909V10.5694H26.1681V10.5466H26.1454V10.5011H26.1226V10.4784H26.0998V10.4329H26.0771V10.4101H26.0543V10.3646H26.0316V10.3418H26.0088V10.2963H25.9861V10.2508H25.9633V10.2281H25.9406V10.1826H25.9178V10.1598H25.8951V10.1143H25.8723V10.0915H25.8495V10.046H25.8268V10.0233H25.804V9.97777H25.7813V9.95502H25.7585V9.90951H25.7358V9.88675H25.713V9.84124H25.6903V9.81849H25.6675V9.77298H25.6448V9.72747H25.622V9.70471H25.5992V9.6592H25.5765V9.63645H25.5537V9.59094H25.531V9.56818H25.5082V9.52267H25.4855V9.49992H25.4627V9.45441H25.44V9.43165H25.4172V9.38614H25.3944V9.36339H25.3717V9.31788H25.3489V9.29512H25.3262V9.24961H25.3034V9.20411H25.2807V9.18135H25.2579V9.13584H25.2352V9.11309H25.2124V9.06758H25.1897V9.04482H25.1669V8.99931H25.1441V8.97656H25.1214V8.93105H25.0986V8.90829H25.0759V8.86278H25.0531V8.84003H25.0304V8.79452H25.0076V8.77176H24.9849V8.72625H24.9621V8.68074H24.9394V8.65799H24.9166V8.61248H24.8938V8.58972H24.8711V8.54421H24.8483V8.52146H24.8256V8.47595H24.8028V8.45319H24.7801V8.40768H24.7573V8.38493H24.7346V8.33942H24.7118V8.31667H24.689V8.27116H24.6663V8.2484H24.6435V8.20289H24.6208V8.15738H24.598V8.13463H24.5753V8.08912H24.5525V8.06636H24.5298V8.02085H24.507V7.9981H24.4843V7.95259H24.4615V7.92983H24.4387V7.88432H24.416V7.86157H24.3932V7.81606H24.3705V7.7933H24.3477V7.74779H24.325V7.72504H24.3022V7.67953H24.2795V7.65677H24.2567V7.61126H24.234V7.56575H24.2112V7.543H24.1884V7.49749H24.1657V7.47473H24.1429V7.42923H24.1202V7.40647H24.0974V7.36096H24.0747V7.33821H24.0519V7.2927H24.0292V7.26994H24.0064V7.22443H23.9836V7.20168H23.9609V7.15617H23.9381V7.13341H23.9154V7.0879H23.8926V7.04239H23.8699V7.01964H23.8471V6.97413H23.8244V6.95137H23.8016V6.90586H23.7789V6.88311H23.7561V6.8376H23.7333V6.81484H23.7106V6.76933H23.6878V6.74658H23.6651V6.70107H23.6423V6.67831H23.6196V6.6328H23.5968V6.61005H23.5741V6.56454H23.5513V6.51903H23.5285V6.49628H23.5058V6.45077H23.483V6.42801H23.4603V6.3825H23.4375V6.35975H23.4148V6.31424H23.392V6.29148H23.3693V6.24597H23.3465V6.22322H23.3238V6.17771H23.301V6.15495H23.2782V6.10944H23.2555V6.08669H23.2327V6.04118H23.21V5.99567H23.1872V5.97291H23.1645V5.9274H23.1417V5.90465H23.119V5.85914H23.0962V5.83638H23.0735V5.79087H23.0507V5.76812H23.0279V5.72261H23.0052V5.69986H22.9824V5.65435H22.9597V5.63159H22.9369V5.58608H22.9142V5.56333H22.8914V5.51782H22.8687V5.47231H22.8459V5.44955H22.8231V5.40404H22.8004V5.38129H22.7776V5.33578H22.7549V5.31302H22.7321V5.26751H22.7094V5.24476H22.6866V5.19925H22.6639V5.17649H22.6411V5.13098H22.6184V5.10823H22.5956V5.06272H22.5728V5.03996H22.5501V4.99445H22.5273V4.94894H22.5046V4.92619H22.4818V4.88068H22.4591V4.85792H22.4363V4.81242H22.4136V4.78966H22.3908V4.74415H22.3681V4.7214H22.3453V4.67589H22.3225V4.65313H22.2998V4.60762H22.277V4.58487H22.2543V4.53936H22.2315V4.49385H22.2088V4.47109H22.186V4.42558H22.1633V4.40283H22.1405V4.35732H22.1177V4.33456H22.095V4.28905H22.0722V4.2663H22.0495V4.22079H22.0267V4.19803H22.004V4.15252H21.9812V4.12977H21.9585V4.08426H21.9357V4.03875H21.913V4.01599H21.8902V3.97048H21.8674V3.94773H21.8447V3.90222H21.8219V3.87947H21.7992V3.83396H21.7764V3.8112H21.7537V3.76569H21.7309V3.74294H21.7082V3.69743H21.6854V3.67467H21.6626V3.62916H21.6399V3.60641H21.6171V3.5609H21.5944V3.51539H21.5716V3.49263H21.5489V3.44712H21.5261V3.42437H21.5034V3.37886H21.4806V3.3561H21.4579V3.31059H21.4351V3.28784H21.4123V3.24233H21.3896V3.21957H21.3668V3.17406H21.3441V3.15131H21.3213V3.1058H21.2986V3.06029H21.2758V3.03754H21.2531V2.99203H21.2303V2.96927H21.2076V2.92376H21.1848V2.90101H21.162V2.8555H21.1393V2.83274H21.1165V2.78723H21.0938V2.76448H21.071V2.71897H21.0483V2.67346H21.0255V2.6507H21.0028V2.60519H20.9572V2.6507H20.9345V2.67346H20.9117V2.71897H20.889V2.74172H20.8662V2.78723H20.8435V2.83274H20.8207V2.8555H20.798V2.90101H20.7752V2.92376H20.7525V2.96927H20.7297V2.99203H20.7069V3.03754H20.6842V3.06029H20.6614V3.1058H20.6387V3.12855H20.6159V3.17406H20.5932V3.19682H20.5704V3.24233H20.5477V3.26508H20.5249V3.31059H20.5022V3.3561H20.4794V3.37886H20.4566V3.42437H20.4339V3.44712H20.4111V3.49263H20.3884V3.51539H20.3656V3.5609H20.3429V3.58365H20.3201V3.62916H20.2974V3.65192H20.2746V3.69743H20.2518V3.72018H20.2291V3.76569H20.2063V3.78845H20.1836V3.83396H20.1608V3.85671H20.1381V3.90222H20.1153V3.94773H20.0926V3.97048H20.0698V4.01599H20.0471V4.03875H20.0243V4.08426H20.0015V4.10701H19.9788V4.15252H19.956V4.17528H19.9333V4.22079H19.9105V4.24354H19.8878V4.28905H19.865V4.31181H19.8423V4.35732H19.8195V4.38007H19.7968V4.42558H19.774V4.44834H19.7512V4.49385H19.7285V4.53936H19.7057V4.56211H19.683V4.60762H19.6602V4.63038H19.6375V4.67589H19.6147V4.69864H19.592V4.74415H19.5692V4.76691H19.5464V4.81242H19.5237V4.83517H19.5009V4.88068H19.4782V4.90343H19.4554V4.94894H19.4327V4.9717H19.4099V5.01721H19.3872V5.03996H19.3644V5.08547H19.3417V5.13098H19.3189V5.15374H19.2961V5.19925H19.2734V5.222H19.2506V5.26751H19.2279V5.29027H19.2051V5.33578H19.1824V5.35853H19.1596V5.40404H19.1369V5.4268H19.1141V5.47231H19.0913V5.49506H19.0686V5.54057H19.0458V5.56333H19.0231V5.60884H19.0003V5.63159H18.9776V5.6771H18.9548V5.69986H18.9321V5.74536H18.9093V5.76812H18.8866V5.81363H18.8638V5.85914H18.841V5.88189H18.8183V5.9274H18.7955V5.95016H18.7728V5.99567H18.75V6.01842H18.7273V6.06393H18.7045V6.08669H18.6818V6.1322H18.659V6.15495H18.6363V6.20046H18.6135V6.22322H18.5907V6.26873H18.568V6.29148H18.5452V6.33699H18.5225V6.35975H18.4997V6.40526H18.477V6.42801H18.4542V6.47352H18.4315V6.49628H18.4087V6.54179H18.3859V6.56454H18.3632V6.61005H18.3404V6.65556H18.3177V6.67831H18.2949V6.72382H18.2722V6.74658H18.2494V6.79209H18.2267V6.81484H18.2039V6.86035H18.1812V6.88311H18.1584V6.92862H18.1356V6.95137H18.1129V6.99688H18.0901V7.01964H18.0674V7.06515H18.0446V7.0879H18.0219V7.13341H17.9991V7.15617H17.9764V7.20168H17.9536V7.22443H17.9309V7.26994H17.9081V7.2927H17.8853V7.33821H17.8626V7.36096H17.8398V7.40647H17.8171V7.45198H17.7943V7.47473H17.7716V7.52024H17.7488V7.543H17.7261V7.58851H17.7033V7.61126H17.6805V7.65677H17.6578V7.67953H17.635V7.72504H17.6123V7.74779H17.5895V7.7933H17.5668V7.81606H17.544V7.86157H17.5213V7.88432H17.4985V7.92983H17.4758V7.95259H17.453V7.9981H17.4302V8.02085H17.4075V8.06636H17.3847V8.08912H17.362V8.13463H17.3392V8.15738H17.3165V8.20289H17.2937V8.2484H17.271V8.27116H17.2482V8.31667H17.2254V8.33942H17.2027V8.38493H17.1799V8.40768H17.1572V8.45319H17.1344V8.47595H17.1117V8.52146H17.0889V8.54421H17.0662V8.58972H17.0434V8.61248H17.0207V8.65799H16.9979V8.68074H16.9751V8.72625H16.9524V8.74901H16.9296V8.79452H16.9069V8.81727H16.8841V8.86278H16.8614V8.88554H16.8386V8.93105H16.8159V8.97656H16.7931V8.99931H16.7704V9.04482H16.7476V9.06758H16.7248V9.11309H16.7021V9.13584H16.6793V9.18135H16.6566V9.20411H16.6338V9.24961H16.6111V9.27237H16.5883V9.31788H16.5656V9.34063H16.5428V9.38614H16.52V9.4089H16.4973V9.45441H16.4745V9.47716H16.4518V9.52267H16.429V9.54543H16.4063V9.59094H16.3835V9.61369H16.3608V9.6592H16.338V9.70471H16.3153V9.72747H16.2925V9.77298H16.2697V9.79573H16.247V9.84124H16.2242V9.864H16.2015V9.90951H16.1787V9.93226H16.156V9.97777H16.1332V10.0005H16.1105V10.046H16.0877V10.0688H16.065V10.1143H16.0422V10.1371H16.0194V10.1826H15.9967V10.2053H15.9739V10.2508H15.9512V10.2736H15.9284V10.3191H15.9057V10.3646H15.8829V10.3874H15.8602V10.4329H15.8374V10.4556H15.8146V10.5011H15.7919V10.5239H15.7691V10.5694H15.7464V10.5922H15.7236V10.6377H15.7009V10.6604H15.6781V10.7059H15.6554V10.7287H15.6326V10.7742H15.6099V10.7969H15.5871V10.8425H15.5643V10.8652H15.5416V10.9107H15.5188V10.9335H15.4961V10.979H15.4733V11.0017H15.4506V11.0472H15.4278V11.0928H15.4051V11.1155H15.3823V11.161H15.3596V11.1838H15.3368V11.2293H15.314V11.252H15.2913V11.2976H15.2685V11.3203H15.2458V11.3658H15.223V11.3886H15.2003V11.4341H15.1775V11.4568H15.1548V11.5023H15.132V11.5251H15.1092V11.5706H15.0865V11.5934H15.0637V11.6389H15.041V11.6616H15.0182V11.7071H14.9955V11.7527H14.9727V11.7754H14.95V11.8209H14.9272V11.8437H14.9045V11.8892H14.8817V11.9119H14.8589V11.9574H14.8362V11.9802H14.8134V12.0257H14.7452V12.003H14.6541V11.9802H14.5631V11.9574H14.4721V11.9347H14.3811V11.9119H14.2673V11.8892H14.1763V11.8664H14.0853V11.8437H13.2433V11.7754H13.2661V11.7527H13.2889V11.7071H13.3116V11.6844H13.3344V11.6389H13.3571V11.5934H13.3799V11.5706H13.4026V11.5251H13.4254V11.5023H13.4481V11.4568H13.4709V11.4341H13.4937V11.3886H13.5164V11.3658H13.5392V11.3203H13.5619V11.2976H13.5847V11.252H13.6074V11.2293H13.6302V11.1838H13.6529V11.161H13.6757V11.1155H13.6984V11.0928H13.7212V11.0472H13.744V11.0017H13.7667V10.979H13.7895V10.9335H13.8122V10.9107H13.835V10.8652H13.8577V10.8425H13.8805V10.7969H13.9032V10.7742H13.926V10.7287H13.9487V10.7059H13.9715V10.6604H13.9943V10.6377H14.017V10.5922H14.0398V10.5694H14.0625V10.5239H14.0853V10.5011H14.108V10.4556H14.1308V10.4101H14.1535V10.3874H14.1763V10.3418H14.1991V10.3191H14.2218V10.2736H14.2446V10.2508H14.2673V10.2053H14.2901V10.1826H14.3128V10.1371H14.3356V10.1143H14.3583V10.0688H14.3811V10.046H14.4038V10.0005H14.4266V9.97777H14.4494V9.93226H14.4721V9.90951H14.4949V9.864H14.5176V9.81849H14.5404V9.79573H14.5631V9.75022H14.5859V9.72747H14.6086V9.68196H14.6314V9.6592H14.6541V9.61369H14.6769V9.59094H14.6997V9.54543H14.7224V9.52267H14.7452V9.47716H14.7679V9.45441H14.7907V9.4089H14.8134V9.38614H14.8362V9.34063H14.8589V9.31788H14.8817V9.27237H14.9045V9.24961H14.9272V9.20411H14.95V9.1586H14.9727V9.13584H14.9955V9.09033H15.0182V9.06758H15.041V9.02207H15.0637V8.99931H15.0865V8.9538H15.1092V8.93105H15.132V8.88554H15.1548V8.86278H15.1775V8.81727H15.2003V8.79452H15.223V8.74901H15.2458V8.72625H15.2685V8.68074H15.2913V8.65799H15.314V8.61248H15.3368V8.58972H15.3596V8.54421H15.3823V8.52146H15.4051V8.47595H15.4278V8.43044H15.4506V8.40768H15.4733V8.36217H15.4961V8.33942H15.5188V8.29391H15.5416V8.27116H15.5643V8.22565H15.5871V8.20289H15.6099V8.15738H15.6326V8.13463H15.6554V8.08912H15.6781V8.06636H15.7009V8.02085H15.7236V7.9981H15.7464V7.95259H15.7691V7.92983H15.7919V7.88432H15.8146V7.86157H15.8374V7.81606H15.8602V7.7933H15.8829V7.74779H15.9057V7.70228H15.9284V7.67953H15.9512V7.63402H15.9739V7.61126H15.9967V7.56575H16.0194V7.543H16.0422V7.49749H16.065V7.47473H16.0877V7.42923H16.1105V7.40647H16.1332V7.36096H16.156V7.33821H16.1787V7.2927H16.2015V7.26994H16.2242V7.22443H16.247V7.20168H16.2697V7.15617H16.2925V7.13341H16.3153V7.0879H16.338V7.06515H16.3608V7.01964H16.3835V6.99688H16.4063V6.95137H16.429V6.90586H16.4518V6.88311H16.4745V6.8376H16.4973V6.81484H16.52V6.76933H16.5428V6.74658H16.5656V6.70107H16.5883V6.67831H16.6111V6.6328H16.6338V6.61005H16.6566V6.56454H16.6793V6.54179H16.7021V6.49628H16.7248V6.47352H16.7476V6.42801H16.7704V6.40526H16.7931V6.35975H16.8159V6.33699H16.8386V6.29148H16.8614V6.26873H16.8841V6.22322H16.9069V6.20046H16.9296V6.15495H16.9524V6.1322H16.9751V6.08669H16.9979V6.04118H17.0207V6.01842H17.0434V5.97291H17.0662V5.95016H17.0889V5.90465H17.1117V5.88189H17.1344V5.83638H17.1572V5.81363H17.1799V5.76812H17.2027V5.74536H17.2254V5.69986H17.2482V5.6771H17.271V5.63159H17.2937V5.60884H17.3165V5.56333H17.3392V5.54057H17.362V5.49506H17.3847V5.47231H17.4075V5.4268H17.4302V5.40404H17.453V5.35853H17.4758V5.31302H17.4985V5.29027H17.5213V5.24476H17.544V5.222H17.5668V5.17649H17.5895V5.15374H17.6123V5.10823H17.635V5.08547H17.6578V5.03996H17.6805V5.01721H17.7033V4.9717H17.7261V4.94894H17.7488V4.90343H17.7716V4.88068H17.7943V4.83517H17.8171V4.81242H17.8398V4.76691H17.8626V4.74415H17.8853V4.69864H17.9081V4.67589H17.9309V4.63038H17.9536V4.58487H17.9764V4.56211H17.9991V4.5166H18.0219V4.49385H18.0446V4.44834H18.0674V4.42558H18.0901V4.38007H18.1129V4.35732H18.1356V4.31181H18.1584V4.28905H18.1812V4.24354H18.2039V4.22079H18.2267V4.17528H18.2494V4.15252H18.2722V4.10701H18.2949V4.08426H18.3177V4.03875H18.3404V4.01599H18.3632V3.97048H18.3859V3.94773H18.4087V3.90222H18.4315V3.87947H18.4542V3.83396H18.477V3.78845H18.4997V3.76569H18.5225V3.72018H18.5452V3.69743H18.568V3.65192H18.5907V3.62916H18.6135V3.58365H18.6363V3.5609H18.659V3.51539H18.6818V3.49263H18.7045V3.44712H18.7273V3.42437H18.75V3.37886H18.7728V3.3561H18.7955V3.31059H18.8183V3.26508H18.841V3.24233H18.8638V3.19682H18.8866V3.17406H18.9093V3.12855H18.9321V3.1058H18.9548V3.06029H18.9776V3.03754H19.0003V2.99203H19.0231V2.96927H19.0458V2.92376H19.0686V2.90101H19.0913V2.8555H19.1141V2.83274H19.1369V2.78723H19.1596V2.74172H19.1824V2.71897H19.2051V2.67346H19.2279V2.6507H19.2506V2.60519H19.2734V2.58244H19.2961V2.53693H19.3189V2.51417H19.3417V2.46866H19.3644V2.44591H19.3872V2.4004H19.4099V2.37764H19.4327V2.33213H19.4554V2.30938H19.4782V2.26387H19.5009V2.21836H19.5237V2.19561H19.5464V2.1501H19.5692V2.12734H19.592V2.08183H19.6147V2.05908H19.6375V2.01357H19.6602V1.99081H19.683V1.9453H19.7057V1.92255H19.7285V1.87704H19.7512V1.85428H19.774V1.80877H19.7968V1.78602H19.8195V1.74051H19.8423V1.695H19.865V1.67224H19.8878V1.62673H19.9105V1.60398H19.9333V1.55847H19.956V1.53571H19.9788V1.4902H20.0015V1.46745H20.0243V1.42194H20.0471V1.39918H20.0698V1.35367H20.0926V1.33092H20.1153V1.28541H20.1381V1.26266H20.1608V1.21715H20.1836V1.17164H20.2063V1.14888H20.2291V1.10337H20.2518V1.08062H20.2746V1.03511H20.2974V1.01235H20.3201V0.966842H20.3429V0.944087H20.3656V0.898577H20.3884V0.875823H20.4111V0.830313H20.4339V0.784803H20.4566V0.762048H20.4794V0.716538H20.5022V0.693784H20.5249V0.648274H20.5477V0.625519H20.5704V0.580009H20.5932V0.557254H20.6159V0.511745H20.6387V0.48899H20.6614V0.44348H20.6842V0.39797H20.7069V0.375215H20.7297V0.329706H20.7525V0.306951H20.7752V0.261441H20.798V0.238686H20.8207V0.193176H20.8435V0.170422H20.8662V0.124912H20.889V0.102157H20.9117V0.0566472H20.9345V0.0338924H20.9572V0.0111375H21.0028V0.0338924H21.0255V0.0566472H21.0483V0.102157H21.071V0.124912H21.0938V0.170422H21.1165V0.193176H21.1393V0.238686H21.162V0.261441H21.1848V0.306951H21.2076V0.329706H21.2303V0.375215H21.2531V0.420725H21.2758V0.44348H21.2986V0.48899H21.3213V0.511745H21.3441V0.557254H21.3668V0.580009H21.3896V0.625519H21.4123V0.648274H21.4351V0.693784H21.4579V0.716538H21.4806V0.762048H21.5034V0.807558H21.5261V0.830313H21.5489V0.875823H21.5716V0.898577H21.5944V0.944087H21.6171V0.966842H21.6399V1.01235H21.6626V1.03511H21.6854V1.08062H21.7082V1.10337H21.7309V1.14888H21.7537V1.19439H21.7764V1.21715H21.7992V1.26266H21.8219V1.28541H21.8447V1.33092H21.8674V1.35367H21.8902V1.39918H21.913V1.42194H21.9357V1.46745H21.9585V1.4902H21.9812V1.53571H22.004V1.58122H22.0267V1.60398H22.0495V1.64949H22.0722V1.67224H22.095V1.71775H22.1177V1.74051H22.1405V1.78602H22.1633V1.80877H22.186V1.85428H22.2088V1.87704H22.2315V1.92255H22.2543V1.9453H22.277V1.99081H22.2998V2.03632H22.3225V2.05908H22.3453V2.10459H22.3681V2.12734H22.3908V2.17285H22.4136V2.19561H22.4363V2.24111H22.4591V2.26387H22.4818V2.30938H22.5046V2.33213H22.5273V2.37764H22.5501V2.4004H22.5728V2.44591H22.5956V2.49142H22.6184V2.51417H22.6411V2.55968H22.6639V2.58244H22.6866V2.62795H22.7094V2.6507H22.7321V2.69621H22.7549V2.71897H22.7776V2.76448H22.8004V2.78723H22.8231V2.83274H22.8459V2.8555H22.8687V2.90101H22.8914V2.92376H22.9142V2.96927H22.9369V3.01478H22.9597V3.03754H22.9824V3.08304H23.0052V3.1058H23.0279V3.15131H23.0507V3.17406H23.0735V3.21957H23.0962V3.24233H23.119V3.28784H23.1417V3.31059H23.1645V3.3561H23.1872V3.37886H23.21V3.42437H23.2327V3.46988H23.2555V3.49263H23.2782V3.53814H23.301V3.5609H23.3238V3.60641H23.3465V3.62916H23.3693V3.67467H23.392V3.69743H23.4148V3.74294H23.4375V3.76569H23.4603V3.8112H23.483V3.83396H23.5058V3.87947H23.5285V3.92498H23.5513V3.94773H23.5741V3.99324H23.5968V4.01599H23.6196V4.0615H23.6423V4.08426H23.6651V4.12977H23.6878V4.15252H23.7106V4.19803H23.7333V4.22079H23.7561V4.2663H23.7789V4.28905H23.8016V4.33456H23.8244V4.35732H23.8471V4.40283H23.8699V4.44834H23.8926V4.47109H23.9154V4.5166H23.9381V4.53936H23.9609V4.58487H23.9836V4.60762H24.0064V4.65313H24.0292V4.67589H24.0519V4.7214H24.0747V4.74415H24.0974V4.78966H24.1202V4.81242H24.1429V4.85792H24.1657V4.88068H24.1884V4.92619H24.2112V4.9717H24.234V4.99445H24.2567V5.03996H24.2795V5.06272H24.3022V5.10823H24.325V5.13098H24.3477V5.17649H24.3705V5.19925H24.3932V5.24476H24.416V5.26751H24.4387V5.31302H24.4615V5.33578H24.4843V5.38129H24.507V5.40404H24.5298V5.44955H24.5525V5.49506H24.5753V5.51782H24.598V5.56333H24.6208V5.58608H24.6435V5.63159H24.6663V5.65435H24.689V5.69986H24.7118V5.72261H24.7346V5.76812H24.7573V5.79087H24.7801V5.83638H24.8028V5.85914H24.8256V5.90465H24.8483V5.9274H24.8711V5.97291H24.8938V6.01842H24.9166V6.04118H24.9394V6.08669H24.9621V6.10944H24.9849V6.15495H25.0076V6.17771H25.0304V6.22322H25.0531V6.24597H25.0759V6.29148H25.0986V6.31424H25.1214V6.35975H25.1441V6.3825H25.1669V6.42801H25.1897V6.45077H25.2124V6.49628H25.2352V6.54179H25.2579V6.56454H25.2807V6.61005H25.3034V6.6328H25.3262V6.67831H25.3489V6.70107H25.3717V6.74658H25.3944V6.76933H25.4172V6.81484H25.44V6.8376H25.4627V6.88311H25.4855V6.90586H25.5082V6.95137H25.531V6.97413H25.5537V7.01964H25.5765V7.04239H25.5992V7.0879H25.622V7.13341H25.6448V7.15617H25.6675V7.20168H25.6903V7.22443H25.713V7.26994H25.7358V7.2927H25.7585V7.33821H25.7813V7.36096H25.804V7.40647H25.8268V7.42923H25.8495V7.47473H25.8723V7.49749H25.8951V7.543H25.9178V7.56575H25.9406V7.61126H25.9633V7.65677H25.9861V7.67953H26.0088V7.72504H26.0316V7.74779H26.0543V7.7933H26.0771V7.81606H26.0998V7.86157H26.1226V7.88432H26.1454V7.92983H26.1681V7.95259H26.1909V7.9981H26.2136V8.02085H26.2364V8.06636H26.2591V8.08912H26.2819V8.13463H26.3046V8.18014H26.3274V8.20289H26.3502V8.2484H26.3729V8.27116H26.3957V8.31667H26.4184V8.33942H26.4412V8.38493H26.4639V8.40768H26.4867V8.45319H26.5094V8.47595H26.5322V8.52146H26.5549V8.54421H26.5777V8.58972H26.6005V8.61248H26.6232V8.65799H26.646V8.7035H26.6687V8.72625H26.6915V8.77176H26.7142V8.79452H26.737V8.84003H26.7597V8.86278H26.7825V8.90829H26.8053V8.93105H26.828V8.97656H26.8508V8.99931H26.8735V9.04482H26.8963V9.06758H26.919V9.11309H26.9418V9.13584H26.9645V9.18135H26.9873V9.22686H27.01V9.24961H27.0328V9.29512H27.0556V9.31788H27.0783V9.36339H27.1011V9.38614H27.1238V9.43165H27.1466V9.45441H27.1693V9.49992H27.1921V9.52267H27.2148V9.56818H27.2376V9.59094H27.2603V9.63645H27.2831V9.68196H27.3059V9.70471H27.3286V9.75022H27.3514V9.77298H27.3741V9.81849H27.3969V9.84124H27.4196V9.88675H27.4424V9.90951H27.4651V9.95502H27.4879V9.97777H27.5107V10.0233H27.5334V10.046H27.5562V10.0915H27.5789V10.1371H27.6017V10.1598H27.6244V10.2053H27.6472V10.2281H27.6699V10.2736H27.6927V10.2963H27.7154V10.3418H27.7382V10.3646H27.761V10.4101H27.7837V10.4329H27.8065V10.4784H27.8292V10.5011H27.852V10.5466H27.8747V10.5694H27.8975V10.6149H27.9202V10.6604H27.943V10.6832H27.9657V10.7287H27.9885V10.7514H28.0113V10.7969H28.034V10.8197H28.0568V10.8652H28.0795V10.888H28.1023V10.9335H28.125V10.9562H28.1478V11.0017H28.1705V11.0245H28.1933V11.07H28.2161V11.1155H28.2388V11.1383H28.2616V11.1838H28.2843V11.2065H28.3071V11.252H28.3298V11.2748H28.3526V11.3203H28.3753V11.3431H28.3981V11.3886H28.4208V11.4113H28.4436V11.4568H28.4664V11.4796H28.4891V11.5251H28.5119V11.5706H28.5346V11.5934H28.5574V11.6389H28.5801V11.6616H28.6029V11.7071H28.6256V11.7299H28.6484V11.7754H28.6712V11.7982H28.6939V11.8437H28.7167V11.8664H28.7394V11.9119H28.7622V11.9347H28.6939V11.9574H28.5801V11.9802H28.4891V12.003H28.3753V12.0257H28.2843V12.0485H28.1705V12.0712H28.0568V12.094H27.9657V12.1167H27.852V12.1395H27.7382V12.1622H27.6472V12.185H27.5334V12.2077H27.4196V12.2305H27.3286V12.2533" fill="url(#paint1_linear)"/>
<path d="M33.6545 19.6941V19.6713H33.609V19.6486H33.5862V19.6258H33.5407V19.6031H33.4952V19.5803H33.4724V19.5576H33.4269V19.5348H33.4042V19.5121H33.3587V19.4893H33.3131V19.4666H33.2904V19.4438H33.2449V19.421H33.1994V19.3983H33.1766V19.3755H33.1311V19.3528H33.0856V19.33H33.0628V19.3073H33.0173V19.2845H32.9946V19.2618H32.9491V19.239H32.9036V19.2162H32.8808V19.1935H32.8353V19.1707H32.7898V19.148H32.767V19.1252H32.7215V19.1025H32.676V19.0797H32.6533V19.057H32.6077V19.0342H32.5622V19.0115H32.5395V18.9887H32.494V18.9659H32.4712V18.9432H32.4257V18.9204H32.3802V18.8977H32.3574V18.8749H32.3119V18.8522H32.2664V18.8294H32.2437V18.8067H32.1982V18.7839H32.1526V18.7611H32.1299V18.7384H32.0844V18.7156H32.0616V18.6929H32.0161V18.6701H31.9706V18.6474H31.9479V18.6246H31.9023V18.6019H31.8568V18.5791H31.8341V18.5564H31.7886V18.5336H31.7431V18.5108H31.7203V18.4881H31.6748V18.4653H31.6293V18.4426H31.6065V18.4198H31.561V18.3971H31.5383V18.3743H31.4928V18.3516H31.4472V18.3288H31.4245V18.3061H31.379V18.2833H31.3335V18.2605H31.3107V18.2378H31.2652V18.215H31.2197V18.1923H31.1969V18.1695H31.1514V18.1468H31.1287V18.124H31.0832V18.1013H31.0377V18.0785H31.0149V18.033H30.9921V18.0102H30.9694V17.9647H30.9466V17.942H30.9239V17.8965H30.9011V17.8737H30.8784V17.8282H30.8556V17.8054H30.8329V17.7599H30.8101V17.7144H30.7874V17.6917H30.7646V17.6462H30.7418V17.6234H30.7191V17.5779H30.6963V17.5551H30.6736V17.5096H30.6508V17.4641H30.6281V17.4414H30.6053V17.3959H30.5826V17.3731H30.5598V17.3276H30.537V17.3048H30.5143V17.2593H30.4915V17.2138H30.4688V17.1911H30.446V17.1456H30.4233V17.1228H30.4005V17.0773H30.3778V17.0545H30.355V17.009H30.3323V16.9635H30.3095V16.9408H30.2867V16.8953H30.264V16.8725H30.2412V16.827H30.2185V16.8042H30.1957V16.7587H30.173V16.7132H30.1502V16.6905H30.1275V16.6449H30.1047V16.6222H30.082V16.5767H30.0592V16.5539H30.0364V16.5084H30.0137V16.4629H29.9909V16.4402H29.9682V16.3946H29.9454V16.3719H29.9227V16.3264H29.8999V16.3036H29.8772V16.2581H29.8544V16.2126H29.8316V16.1898H29.8089V16.1443H29.7861V16.1216H29.7634V16.0761H29.7406V16.0533H29.7179V16.0078H29.6951V15.9623H29.6724V15.9395H29.6496V15.894H29.6269V15.8713H29.6041V15.8258H29.5813V15.803H29.5586V15.7575H29.5358V15.7348H29.5131V15.6892H29.4903V15.6437H29.4676V15.621H29.4448V15.5755H29.4221V15.5527H29.3993V15.5072H29.3765V15.4844H29.3538V15.4389H29.331V15.4162H29.3083V15.3707H29.2855V15.3252H29.2628V15.3024H29.24V15.2569H29.2173V15.2341H29.1945V15.1886H29.1718V15.1659H29.149V15.1204H29.1262V15.0749H29.1035V15.0521H29.0807V15.0066H29.058V14.9838H29.0352V14.9383H29.0125V14.9156H28.9897V14.8701H28.967V14.8473H28.9442V14.8018H28.9215V14.7563H28.8987V14.7335H28.8759V14.688H28.8532V14.6653H28.8304V14.6198H28.8077V14.597H28.7849V14.5515H28.7622V14.5287H28.7394V14.4832H28.7167V14.4377H28.6939V14.415H28.6711V14.3695H28.6484V14.3467H28.6256V14.3012H28.6029V14.2784H28.5801V14.2329H28.5574V14.1874H28.5346V14.1647H28.5119V14.1192H28.4891V14.0964H28.4664V14.0509H28.4436V14.0281H28.4208V13.9826H28.3981V13.9599H28.3753V13.9144H28.3981V13.8916H28.5574V13.8689H28.7167V13.8461H28.8532V13.8233H29.0125V13.8006H29.1718V13.7778H29.331V13.7551H29.5131V13.7323H29.7406V13.7096H29.9454V13.7551H29.9682V13.7778H29.9909V13.8233H30.0137V13.8461H30.0364V13.8916H30.0592V13.9371H30.082V13.9599H30.1047V14.0054H30.1275V14.0281H30.1502V14.0736H30.173V14.0964H30.1957V14.1419H30.2185V14.1647H30.2412V14.2102H30.264V14.2557H30.2867V14.2784H30.3095V14.3239H30.3323V14.3467H30.355V14.3922H30.3778V14.415H30.4005V14.4605H30.4233V14.4832H30.446V14.5287H30.4688V14.5743H30.4915V14.597H30.5143V14.6425H30.537V14.6653H30.5598V14.7108H30.5826V14.7335H30.6053V14.779H30.6281V14.8246H30.6508V14.8473H30.6736V14.8928H30.6963V14.9156H30.7191V14.9611H30.7418V14.9838H30.7646V15.0294H30.7874V15.0521H30.8101V15.0976H30.8329V15.1431H30.8556V15.1659H30.8784V15.2114H30.9011V15.2341H30.9239V15.2797H30.9466V15.3024H30.9694V15.3479H30.9921V15.3934H31.0149V15.4162H31.0377V15.4617H31.0604V15.4844H31.0832V15.53H31.1059V15.5527H31.1287V15.5982H31.1514V15.621H31.1742V15.6665H31.1969V15.712H31.2197V15.7348H31.2424V15.7803H31.2652V15.803H31.288V15.8485H31.3107V15.8713H31.3335V15.9168H31.3562V15.9623H31.379V15.9851H31.4017V16.0306H31.4245V16.0533H31.4472V16.0988H31.47V16.1216H31.4928V16.1671H31.5155V16.1898H31.5383V16.2354H31.561V16.2809H31.5838V16.3036H31.6065V16.3491H31.6293V16.3719H31.652V16.4174H31.6748V16.4402H31.6975V16.4857H31.7203V16.5312H31.7431V16.5539H31.7658V16.5994H31.7886V16.6222H31.8113V16.6677H31.8341V16.6905H31.8568V16.736H31.8796V16.7815H31.9023V16.8042H31.9251V16.8497H31.9479V16.8725H31.9706V16.918H31.9934V16.9408H32.0161V16.9863H32.0389V17.0318H32.0616V17.0545H32.0844V17.1H32.1071V17.1228H32.1299V17.1683H32.1526V17.1911H32.1754V17.2366H32.1982V17.2821H32.2209V17.3048H32.2437V17.3503H32.2664V17.3731H32.2892V17.4186H32.3119V17.4641H32.3347V17.4869H32.3574V17.5324H32.3802V17.5551H32.4029V17.6007H32.4257V17.6234H32.4485V17.6689H32.4712V17.7144H32.494V17.7372H32.5167V17.7827H32.5395V17.8054H32.5622V17.851H32.585V17.8737H32.6077V17.9192H32.6305V17.9647H32.6533V17.9875H32.676V18.033H32.6988V18.0557H32.7215V18.1013H32.7443V18.124H32.767V18.1695H32.7898V18.215H32.8125V18.2378H32.8353V18.2833H32.858V18.3061H32.8808V18.3516H32.9036V18.3743H32.9263V18.4198H32.9491V18.4653H32.9718V18.4881H32.9946V18.5336H33.0173V18.5564H33.0401V18.6019H33.0628V18.6474H33.0856V18.6701H33.1083V18.7156H33.1311V18.7384H33.1539V18.7839H33.1766V18.8067H33.1994V18.8522H33.2221V18.8977H33.2449V18.9204H33.2676V18.9659H33.2904V18.9887H33.3131V19.0342H33.3359V19.057H33.3587V19.1025H33.3814V19.148H33.4042V19.1707H33.4269V19.2162H33.4497V19.2618H33.4724V19.2845H33.4952V19.33H33.5179V19.3755H33.5407V19.421H33.5634V19.4438H33.5862V19.4893H33.609V19.5348H33.6317V19.5576H33.6545V19.6031H33.6772V19.6486H33.7V19.6941" fill="url(#paint2_linear)"/>
<path d="M20.0243 41.3112V41.2885H19.7512V41.2657H19.4782V41.243H19.2279V41.2202H19.0458V41.1975H18.8865V41.1747H18.7272V41.1519H18.568V41.1292H18.4087V41.1064H18.2949V41.0837H18.1811V41.0609H18.0674V41.0382H17.9536V41.0154H17.8398V40.9927H17.726V40.9699H17.6123V40.9471H17.5212V40.9244H17.4302V40.9016H17.362V40.8789H17.2709V40.8561H17.1799V40.8334H17.0889V40.8106H17.0206V40.7879H16.9296V40.7651H16.8386V40.7424H16.7476V40.7196H16.6793V40.6968H16.611V40.6741H16.5428V40.6513H16.4745V40.6286H16.4063V40.6058H16.338V40.5831H16.2697V40.5603H16.2015V40.5376H16.1332V40.5148H16.0649V40.4921H15.9967V40.4693H15.9284V40.4465H15.8829V40.4238H15.8146V40.401H15.7691V40.3783H15.7008V40.3555H15.6553V40.3328H15.5871V40.31H15.5416V40.2873H15.4733V40.2645H15.4278V40.2417H15.3595V40.219H15.314V40.1962H15.2458V40.1735H15.2002V40.1507H15.1547V40.128H15.0865V40.1052H15.041V40.0825H14.9954V40.0597H14.9499V40.037H14.9044V40.0142H14.8362V39.9914H14.7907V39.9687H14.7451V39.9459H14.6996V39.9232H14.6541V39.9004H14.6086V39.8777H14.5631V39.8549H14.5176V39.8322H14.4721V39.8094H14.4266V39.7866H14.3811V39.7639H14.3356V39.7411H14.29V39.7184H14.2445V39.6956H14.199V39.6729H14.1535V39.6501H14.1308V39.6274H14.0853V39.6046H14.0397V39.5819H13.9942V39.5591H13.9487V39.5363H13.926V39.5136H13.8805V39.4908H13.8349V39.4681H13.7894V39.4453H13.7667V39.4226H13.7212V39.3998H13.6757V39.3771H13.6302V39.3543H13.5846V39.3316H13.5619V39.3088H13.5164V39.286H13.4709V39.2633H13.4254V39.2405H13.4026V39.2178H13.3571V39.195H13.3343V39.1723H13.2888V39.1495H13.2661V39.1268H13.2206V39.104H13.1978V39.0812H13.1523V39.0585H13.1295V39.0357H13.084V39.013H13.0613V38.9902H13.0158V38.9675H12.9703V38.9447H12.9475V38.922H12.902V38.8992H12.8792V38.8765H12.8337V38.8537H12.811V38.8309H12.7655V38.8082H12.7427V38.7854H12.6972V38.7627H12.6745V38.7399H12.6289V38.7172H12.6062V38.6944H12.5607V38.6717H12.5379V38.6489H12.4924V38.6262H12.4697V38.6034H12.4469V38.5806H12.4014V38.5579H12.3786V38.5351H12.3559V38.5124H12.3104V38.4896H12.2876V38.4669H12.2649V38.4441H12.2194V38.4214H12.1966V38.3986H12.1738V38.3758H12.1511V38.3531H12.1056V38.3303H12.0828V38.3076H12.0601V38.2848H12.0146V38.2621H11.9918V38.2393H11.9691V38.2166H11.9463V38.1938H11.9008V38.1711H11.878V38.1483H11.8553V38.1255H11.8325V38.1028H11.8098V38.08H11.7643V38.0573H11.7415V38.0345H11.7187V38.0118H11.696V37.989H11.6732V37.9663H11.6277V37.9435H11.605V37.9207H11.5822V37.898H11.5595V37.8752H11.5367V37.8525H11.514V37.8297H11.4684V37.807H11.4457V37.7842H11.4229V37.7615H11.4002V37.7387H11.3774V37.716H11.3547V37.6932H11.3092V37.6704H11.2864V37.6477H11.2636V37.6249H11.2409V37.6022H11.2181V37.5794H11.1954V37.5567H11.1726V37.5339H11.1499V37.5112H11.1271V37.4884H11.1044V37.4657H11.0816V37.4429H11.0589V37.4201H11.0361V37.3974H11.0133V37.3746H10.9678V37.3519H10.9451V37.3291H10.9223V37.3064H10.8996V37.2836H10.8768V37.2609H10.8541V37.2381H10.8313V37.2153H10.8086V37.1926H10.7858V37.1698H10.763V37.1471H10.7403V37.1243H10.7175V37.1016H10.6948V37.0788H10.672V37.0561H10.6493V37.0333H10.6265V37.0106H10.6038V36.9878H10.581V36.965H10.5582V36.9423H10.5355V36.9195H10.5127V36.8968H10.49V36.8513H10.4672V36.8285H10.4445V36.8058H10.4217V36.783H10.399V36.7603H10.3762V36.7375H10.3535V36.7147H10.3307V36.692H10.3079V36.6692H10.2852V36.6465H10.2624V36.6237H10.2397V36.5782H10.2169V36.5555H10.1942V36.5327H10.1714V36.5099H10.1487V36.4872H10.1259V36.4644H10.1032V36.4417H10.0804V36.4189H10.0576V36.3734H10.0349V36.3507H10.0121V36.3279H9.98938V36.3052H9.96662V36.2824H9.94387V36.2596H9.92111V36.2141H9.89836V36.1914H9.8756V36.1686H9.85285V36.1459H9.83009V36.1231H9.80734V36.0776H9.78458V36.0549H9.76183V36.0321H9.73907V36.0093H9.71632V35.9638H9.69356V35.9411H9.67081V35.9183H9.64805V35.8956H9.6253V35.8501H9.60254V35.8273H9.57979V35.8045H9.55703V35.7818H9.53428V35.7363H9.51152V35.7135H9.48877V35.6908H9.46601V35.6453H9.44326V35.6225H9.4205V35.5998H9.39775V35.5542H9.375V35.5315H9.35224V35.5087H9.32949V35.4632H9.30673V35.4405H9.28398V35.395H9.26122V35.3722H9.23847V35.3494H9.21571V35.3039H9.19296V35.2812H9.1702V35.2584H9.14745V35.2129H9.12469V35.1902H9.10194V35.1447H9.07918V35.1219H9.05643V35.0764H9.03367V35.0536H9.01092V35.0081H8.98816V34.9854H8.96541V34.9399H8.94265V34.9171H8.9199V34.8716H8.89714V34.8488H8.87439V34.8033H8.85163V34.7806H8.82888V34.7351H8.80612V34.7123H8.78337V34.6668H8.76061V34.644H8.73786V34.5985H8.7151V34.553H8.69235V34.5303H8.66959V34.4848H8.64684V34.4393H8.62408V34.4165H8.60133V34.371H8.57857V34.3255H8.55582V34.3027H8.53307V34.2572H8.51031V34.2117H8.48756V34.189H8.4648V34.1434H8.44205V34.0979H8.41929V34.0752H8.39654V34.0297H8.37378V33.9842H8.35103V33.9386H8.32827V33.8931H8.30552V33.8476H8.28276V33.8249H8.26001V33.7794H8.23725V33.7339H8.2145V33.6883H8.19174V33.6428H8.16899V33.5973H8.14623V33.5746H8.12348V33.5291H8.10072V33.4835H8.07797V33.438H8.05521V33.3925H8.03246V33.347H8.0097V33.3015H7.98695V33.2332H7.96419V33.1877H7.94144V33.1422H7.91868V33.0967H7.89593V33.0512H7.87317V33.0057H7.85042V32.9602H7.82766V32.9147H7.80491V32.8692H7.78215V32.8009H7.7594V32.7554H7.73664V32.7099H7.71389V32.6416H7.69113V32.5961H7.66838V32.5506H7.64563V32.5051H7.62287V32.4368H7.60012V32.3913H7.57736V32.3458H7.55461V32.2775H7.53185V32.232H7.5091V32.1638H7.48634V32.0955H7.46359V32.05H7.44083V31.9817H7.41808V31.9135H7.39532V31.868H7.37257V31.7997H7.34981V31.7314H7.32706V31.6859H7.3043V31.6177H7.28155V31.5494H7.25879V31.4811H7.23604V31.4129H7.21328V31.3446H7.19053V31.2763H7.16777V31.1853H7.14502V31.117H7.12226V31.0488H7.09951V30.9805H7.07675V30.9122H7.054V30.8212H7.03124V30.7302H7.00849V30.6619H6.98573V30.5709H6.96298V30.4799H6.94022V30.4116H6.91747V30.3206H6.89471V30.2296H6.87196V30.1386H6.8492V30.0476H6.82645V29.9338H6.80369V29.8428H6.78094V29.729H6.75819V29.6152H6.73543V29.5014H6.71268V29.3877H6.68992V29.2511H6.66717V29.1146H6.64441V28.9781H6.62166V28.8416H6.5989V28.6595H6.57615V28.4547H6.55339V28.2499H6.53064V28.0679H6.50788V27.7948H6.48513V27.3852H6.46237V25.9517H6.48513V25.5649H6.50788V25.269H6.53064V25.087H6.55339V24.8822H6.57615V24.7002H6.5989V24.5181H6.62166V24.3816H6.64441V24.2678H6.66717V24.1313H6.68992V23.9948H6.71268V23.881H6.73543V23.7445H6.75819V23.6307H6.78094V23.5397H6.80369V23.4487H6.82645V23.3349H6.8492V23.2439H6.87196V23.1301H6.89471V23.0391H6.91747V22.9708H6.94022V22.8798H6.98573V22.857H7.00849V22.8343H7.03124V22.8115H7.054V22.7888H7.07675V22.766H7.12226V22.7433H7.14502V22.7205H7.16777V22.6977H7.19053V22.675H7.23604V22.6522H7.25879V22.6295H7.28155V22.6067H7.32706V22.584H7.34981V22.5612H7.37257V22.5385H7.39532V22.5157H7.44083V22.4929H7.46359V22.4702H7.48634V22.4474H7.53185V22.4247H7.55461V22.4019H7.57736V22.3792H7.60012V22.3564H7.64563V22.3337H7.66838V22.3109H7.69113V22.2882H7.73664V22.2654H7.7594V22.2426H7.78215V22.2199H7.80491V22.1971H7.85042V22.1744H7.87317V22.1516H7.89593V22.1289H7.94144V22.1061H7.96419V22.0834H7.98695V22.0606H8.03246V22.0378H8.05521V22.0151H8.07797V21.9923H8.12348V21.9696H8.14623V21.9468H8.19174V21.9241H8.2145V21.9013H8.23725V21.8786H8.28276V21.8558H8.30552V21.8331H8.32827V21.8103H8.37378V21.7875H8.39654V21.7648H8.44205V21.742H8.4648V21.7193H8.48756V21.6965H8.53307V21.6738H8.55582V21.651H8.60133V21.6283H8.62408V21.6055H8.64684V21.5828H8.69235V21.56H8.7151V21.5372H8.73786V21.5145H8.78337V21.4917H8.80612V21.469H8.85163V21.4462H8.87439V21.4235H8.9199V21.4007H8.94265V21.378H8.98816V21.4235H8.96541V21.469H8.94265V21.5372H8.9199V21.5828H8.89714V21.6283H8.87439V21.6965H8.85163V21.742H8.82888V21.8103H8.80612V21.8558H8.78337V21.9241H8.76061V21.9923H8.73786V22.0378H8.7151V22.1061H8.69235V22.1516H8.66959V22.2199H8.64684V22.2882H8.62408V22.3337H8.60133V22.4247H8.57857V22.4929H8.55582V22.5612H8.53307V22.6295H8.51031V22.6977H8.48756V22.7888H8.4648V22.857H8.44205V22.9253H8.41929V22.9936H8.39654V23.0846H8.37378V23.1528H8.35103V23.2211H8.32827V23.2894H8.30552V23.4031H8.28276V23.4942H8.26001V23.5852H8.23725V23.699H8.2145V23.79H8.19174V23.9037H8.16899V23.9948H8.14623V24.0858H8.12348V24.1996H8.10072V24.3133H8.07797V24.4499H8.05521V24.6091H8.03246V24.7684H8.0097V24.9277H7.98695V25.087H7.96419V25.2463H7.94144V25.5193H7.91868V25.8607H7.89593V26.1792H7.87317V27.0667H7.89593V27.5445H7.91868V27.7948H7.94144V28.0679H7.96419V28.3182H7.98695V28.4775H8.0097V28.614H8.03246V28.7733H8.05521V28.9326H8.07797V29.0691H8.10072V29.1829H8.12348V29.2967H8.14623V29.4104H8.16899V29.5242H8.19174V29.6152H8.2145V29.7062H8.23725V29.82H8.26001V29.911H8.28276V30.0021H8.30552V30.0931H8.32827V30.1613H8.35103V30.2524H8.37378V30.3206H8.39654V30.4116H8.41929V30.5027H8.44205V30.5709H8.4648V30.6392H8.48756V30.7075H8.51031V30.7757H8.53307V30.844H8.55582V30.935H8.57857V31.0033H8.60133V31.0715H8.62408V31.1398H8.64684V31.2081H8.66959V31.2536H8.69235V31.3218H8.7151V31.3901H8.73786V31.4356H8.76061V31.5039H8.78337V31.5494H8.80612V31.6177H8.82888V31.6859H8.85163V31.7314H8.87439V31.7997H8.89714V31.8452H8.9199V31.8907H8.94265V31.959H8.96541V32.0045H8.98816V32.05H9.01092V32.1183H9.03367V32.1638H9.05643V32.2093H9.07918V32.2775H9.10194V32.3231H9.12469V32.3686H9.14745V32.4141H9.1702V32.4596H9.19296V32.5051H9.21571V32.5506H9.23847V32.5961H9.26122V32.6416H9.28398V32.6871H9.30673V32.7326H9.32949V32.7781H9.35224V32.8464H9.375V32.8692H9.39775V32.9147H9.4205V32.9602H9.44326V33.0057H9.46601V33.0512H9.48877V33.0967H9.51152V33.1195H9.53428V33.165H9.55703V33.2105H9.57979V33.256H9.60254V33.3015H9.6253V33.347H9.64805V33.3925H9.67081V33.4153H9.69356V33.4608H9.71632V33.4835H9.73907V33.5291H9.76183V33.5746H9.78458V33.5973H9.80734V33.6428H9.83009V33.6883H9.85285V33.7111H9.8756V33.7566H9.89836V33.8021H9.92111V33.8249H9.94387V33.8704H9.96662V33.9159H9.98938V33.9386H10.0121V33.9842H10.0349V34.0069H10.0576V34.0524H10.0804V34.0752H10.1032V34.1207H10.1259V34.1434H10.1487V34.189H10.1714V34.2117H10.1942V34.2572H10.2169V34.28H10.2397V34.3255H10.2624V34.3482H10.2852V34.3937H10.3079V34.4165H10.3307V34.4393H10.3535V34.4848H10.3762V34.5075H10.399V34.553H10.4217V34.5758H10.4445V34.5985H10.4672V34.644H10.49V34.6668H10.5127V34.6896H10.5355V34.7351H10.5582V34.7578H10.581V34.7806H10.6038V34.8261H10.6265V34.8488H10.6493V34.8716H10.672V34.9171H10.6948V34.9399H10.7175V34.9626H10.7403V34.9854H10.763V35.0309H10.7858V35.0536H10.8086V35.0764H10.8313V35.0991H10.8541V35.1447H10.8768V35.1674H10.8996V35.1902H10.9223V35.2129H10.9451V35.2584H10.9678V35.2812H10.9906V35.3039H11.0133V35.3267H11.0361V35.3494H11.0589V35.395H11.0816V35.4177H11.1044V35.4405H11.1271V35.4632H11.1499V35.486H11.1726V35.5087H11.1954V35.5315H11.2181V35.5542H11.2409V35.5998H11.2636V35.6225H11.2864V35.6453H11.3092V35.668H11.3319V35.6908H11.3547V35.7135H11.3774V35.7363H11.4002V35.759H11.4229V35.8045H11.4457V35.8273H11.4684V35.8501H11.4912V35.8728H11.514V35.8956H11.5367V35.9183H11.5595V35.9411H11.5822V35.9638H11.605V35.9866H11.6277V36.0093H11.6505V36.0321H11.6732V36.0549H11.696V36.0776H11.7187V36.1004H11.7415V36.1231H11.7643V36.1459H11.787V36.1686H11.8098V36.1914H11.8325V36.2141H11.8553V36.2369H11.878V36.2596H11.9008V36.2824H11.9235V36.3052H11.9463V36.3279H11.9691V36.3507H11.9918V36.3734H12.0146V36.3962H12.0373V36.4189H12.0828V36.4417H12.1056V36.4644H12.1283V36.4872H12.1511V36.5099H12.1738V36.5327H12.1966V36.5555H12.2194V36.5782H12.2421V36.601H12.2649V36.6237H12.2876V36.6465H12.3104V36.6692H12.3331V36.692H12.3786V36.7147H12.4014V36.7375H12.4241V36.7603H12.4469V36.783H12.4697V36.8058H12.5152V36.8285H12.5379V36.8513H12.5607V36.874H12.5834V36.8968H12.6062V36.9195H12.6289V36.9423H12.6745V36.965H12.6972V36.9878H12.72V37.0106H12.7427V37.0333H12.7655V37.0561H12.811V37.0788H12.8337V37.1016H12.8565V37.1243H12.8792V37.1471H12.9248V37.1698H12.9475V37.1926H12.9703V37.2153H13.0158V37.2381H13.0385V37.2609H13.0613V37.2836H13.084V37.3064H13.1295V37.3291H13.1523V37.3519H13.1751V37.3746H13.2206V37.3974H13.2433V37.4201H13.2661V37.4429H13.3116V37.4657H13.3343V37.4884H13.3799V37.5112H13.4026V37.5339H13.4254V37.5567H13.4709V37.5794H13.4936V37.6022H13.5391V37.6249H13.5619V37.6477H13.6074V37.6704H13.6302V37.6932H13.6757V37.716H13.7212V37.7387H13.7439V37.7615H13.7894V37.7842H13.8122V37.807H13.8577V37.8297H13.8805V37.8525H13.926V37.8752H13.9487V37.898H13.9942V37.9207H14.017V37.9435H14.0625V37.9663H14.0853V37.989H14.1308V38.0118H14.1535V38.0345H14.199V38.0573H14.2445V38.08H14.29V38.1028H14.3128V38.1255H14.3583V38.1483H14.4038V38.1711H14.4493V38.1938H14.4721V38.2166H14.5176V38.2393H14.5631V38.2621H14.6086V38.2848H14.6541V38.3076H14.6769V38.3303H14.7224V38.3531H14.7679V38.3758H14.8134V38.3986H14.8362V38.4214H14.8817V38.4441H14.9272V38.4669H14.9727V38.4896H15.0182V38.5124H15.0637V38.5351H15.1092V38.5579H15.1547V38.5806H15.2002V38.6034H15.2458V38.6262H15.2913V38.6489H15.3368V38.6717H15.3823V38.6944H15.4278V38.7172H15.4961V38.7399H15.5416V38.7627H15.5871V38.7854H15.6326V38.8082H15.6781V38.8309H15.7464V38.8537H15.7919V38.8765H15.8374V38.8992H15.9056V38.922H15.9512V38.9447H16.0194V38.9675H16.0649V38.9902H16.1332V39.013H16.2015V39.0357H16.247V39.0585H16.3152V39.0812H16.3607V39.104H16.429V39.1268H16.4745V39.1495H16.5428V39.1723H16.611V39.195H16.6793V39.2178H16.7476V39.2405H16.8158V39.2633H16.8841V39.286H16.9524V39.3088H17.0206V39.3316H17.0889V39.3543H17.1799V39.3771H17.2482V39.3998H17.3164V39.4226H17.4075V39.4453H17.4985V39.4681H17.5895V39.4908H17.6805V39.5136H17.7715V39.5363H17.8398V39.5591H17.9308V39.5819H18.0446V39.6046H18.1584V39.6274H18.2721V39.6501H18.3859V39.6729H18.4997V39.6956H18.6135V39.7184H18.75V39.7411H18.9093V39.7639H19.0686V39.7866H19.2279V39.8094H19.4099V39.8322H19.6602V39.8549H19.9333V39.8777H20.2746V39.9004H21.4123V39.8777H21.7992V39.8549H22.0722V39.8322H22.2543V39.8094H22.4363V39.7866H22.6183V39.7639H22.8004V39.7411H22.9824V39.7184H23.0962V39.6956H23.21V39.6729H23.3237V39.6501H23.4375V39.6274H23.5513V39.6046H23.6651V39.5819H23.7788V39.5591H23.8926V39.5363H24.0064V39.5136H24.0746V39.4908H24.1657V39.4681H24.2339V39.4453H24.3249V39.4226H24.3932V39.3998H24.4842V39.3771H24.5525V39.3543H24.6435V39.3316H24.7118V39.3088H24.8028V39.286H24.8938V39.2633H24.9621V39.2405H25.0303V39.2178H25.0986V39.195H25.1441V39.1723H25.2124V39.1495H25.2806V39.1268H25.3489V39.104H25.3944V39.0812H25.4627V39.0585H25.531V39.0357H25.5992V39.013H25.6447V38.9902H25.713V38.9675H25.7813V38.9447H25.8495V38.922H25.895V38.8992H25.9633V38.8765H26.0088V38.8537H26.0543V38.8309H26.1226V38.8082H26.1681V38.7854H26.2136V38.7627H26.2591V38.7399H26.3046V38.7172H26.3729V38.6944H26.4184V38.6717H26.4639V38.6489H26.5094V38.6262H26.5777V38.6034H26.6232V38.5806H26.6687V38.5579H26.7142V38.5351H26.7597V38.5124H26.828V38.4896H26.8735V38.4669H26.919V38.4441H26.9645V38.4214H26.9873V38.3986H27.0328V38.3758H27.0783V38.3531H27.1238V38.3303H27.1693V38.3076H27.2148V38.2848H27.2376V38.2621H27.2831V38.2393H27.3286V38.2166H27.3741V38.1938H27.4196V38.1711H27.4651V38.1483H27.4879V38.1255H27.5334V38.1028H27.5789V38.08H27.6244V38.0573H27.6699V38.0345H27.6927V38.0118H27.7382V37.989H27.7837V37.9663H27.8292V37.9435H27.8519V37.9207H27.8975V37.898H27.9202V37.8752H27.9657V37.8525H28.0112V37.8297H28.034V37.807H28.0795V37.7842H28.1023V37.7615H28.1478V37.7387H28.1705V37.716H28.216V37.6932H28.2615V37.6704H28.2843V37.6477H28.3298V37.6249H28.3526V37.6022H28.3981V37.5794H28.4436V37.5567H28.4663V37.5339H28.4891V37.5112H28.5346V37.4884H28.5574V37.4657H28.6029V37.4429H28.6256V37.4201H28.6484V37.3974H28.6939V37.3746H28.7166V37.3519H28.7621V37.3291H28.7849V37.3064H28.8077V37.2836H28.8532V37.2609H28.8759V37.2381H28.8987V37.2153H28.9442V37.1926H28.9669V37.1698H28.9897V37.1471H29.0124V37.1243H29.058V37.1016H29.0807V37.0788H29.1035V37.0561H29.149V37.0333H29.1717V37.0106H29.1945V36.9878H29.24V36.965H29.2628V36.9423H29.2855V36.9195H29.3083V36.8968H29.331V36.874H29.3765V36.8513H29.3993V36.8285H29.422V36.8058H29.4448V36.783H29.4675V36.7603H29.4903V36.7375H29.5358V36.7147H29.5586V36.692H29.5813V36.6692H29.6041V36.6465H29.6268V36.6237H29.6496V36.601H29.6951V36.5782H29.7178V36.5555H29.7406V36.5327H29.7634V36.5099H29.7861V36.4872H29.8089V36.4644H29.8544V36.4417H29.8771V36.4189H29.8999V36.3962H29.9226V36.3734H29.9454V36.3507H29.9682V36.3279H29.9909V36.3052H30.0137V36.2824H30.0364V36.2596H30.0592V36.2369H30.0819V36.2141H30.1047V36.1914H30.1274V36.1686H30.1502V36.1459H30.1729V36.1231H30.1957V36.1004H30.2185V36.0776H30.2412V36.0549H30.264V36.0321H30.2867V36.0093H30.3095V35.9866H30.355V35.9638H30.3777V35.9411H30.4005V35.9183H30.4233V35.8956H30.446V35.8728H30.4688V35.8501H30.4915V35.8273H30.5143V35.7818H30.537V35.759H30.5598V35.7363H30.5825V35.7135H30.6053V35.6908H30.628V35.668H30.6508V35.6453H30.6736V35.6225H30.6963V35.5998H30.7191V35.577H30.7418V35.5315H30.7646V35.5087H30.7873V35.486H30.8101V35.4632H30.8328V35.4405H30.8556V35.4177H30.8783V35.395H30.9011V35.3722H30.9239V35.3494H30.9466V35.3267H30.9694V35.3039H30.9921V35.2584H31.0149V35.2357H31.0376V35.2129H31.0604V35.1902H31.0831V35.1447H31.1059V35.1219H31.1287V35.0991H31.1514V35.0764H31.1742V35.0536H31.1969V35.0081H31.2197V34.9854H31.2424V34.9626H31.2652V34.9399H31.2879V34.8944H31.3107V34.8716H31.3334V34.8488H31.3562V34.8261H31.379V34.7806H31.4017V34.7578H31.4245V34.7351H31.4472V34.7123H31.47V34.6668H31.4927V34.644H31.5155V34.6213H31.5382V34.5758H31.561V34.553H31.5837V34.5303H31.6065V34.4848H31.6293V34.462H31.652V34.4165H31.6748V34.3937H31.6975V34.371H31.7203V34.3255H31.743V34.3027H31.7658V34.2572H31.7885V34.2345H31.8113V34.2117H31.8341V34.1662H31.8568V34.1434H31.8796V34.0979H31.9023V34.0752H31.9251V34.0524H31.9478V34.0069H31.9706V33.9614H31.9933V33.9386H32.0161V33.8931H32.0388V33.8704H32.0616V33.8249H32.0844V33.7794H32.1071V33.7566H32.1299V33.7111H32.1526V33.6883H32.1754V33.6428H32.1981V33.5973H32.2209V33.5746H32.2436V33.5291H32.2664V33.5063H32.2891V33.4608H32.3119V33.4153H32.3347V33.3925H32.3574V33.347H32.3802V33.3015H32.4029V33.2788H32.4257V33.2332H32.4484V33.1877H32.4712V33.1422H32.4939V33.0967H32.5167V33.074H32.5395V33.0285H32.5622V32.9829H32.585V32.9374H32.6077V32.8919H32.6305V32.8692H32.6532V32.8237H32.676V32.7781H32.6987V32.7326H32.7215V32.6871H32.7442V32.6416H32.767V32.5961H32.7898V32.5506H32.8125V32.5051H32.8353V32.4596H32.858V32.3913H32.8808V32.3458H32.9035V32.3003H32.9263V32.2548H32.949V32.2093H32.9718V32.141H32.9946V32.0955H33.0173V32.05H33.0401V32.0045H33.0628V31.959H33.0856V31.8907H33.1083V31.8452H33.1311V31.7769H33.1538V31.7314H33.1766V31.6632H33.1993V31.6177H33.2221V31.5494H33.2449V31.5039H33.2676V31.4356H33.2904V31.3901H33.3131V31.3218H33.3359V31.2536H33.3586V31.2081H33.3814V31.1398H33.4041V31.0715H33.4269V31.0033H33.4496V30.935H33.4724V30.8667H33.4952V30.7985H33.5179V30.7302H33.5407V30.6619H33.5634V30.5937H33.5862V30.5254H33.6089V30.4344H33.6317V30.3661H33.6544V30.2751H33.6772V30.2068H33.7V30.1158H33.7227V30.0476H33.7455V29.9565H33.7682V29.8655H33.791V29.7518H33.8137V29.6607H33.8365V29.5697H33.8592V29.4559H33.882V29.3649H33.9047V29.2511H33.9275V29.1146H33.9503V29.0008H33.973V28.8643H33.9958V28.7278H34.0185V28.5913H34.0413V28.4092H34.064V28.2272H34.0868V28.0451H34.1095V27.7721H34.1323V27.4308H34.155V26.0427H34.1323V25.7241H34.1095V25.4738H34.0868V25.2463H34.064V25.087H34.0413V24.9277H34.0185V24.7684H33.9958V24.6319H33.973V24.4954H33.9503V24.3816H33.9275V24.2678H33.9047V24.1541H33.882V24.0403H33.8592V23.9493H33.8365V23.8355H33.8137V23.7445H33.791V23.6534H33.7682V23.5624H33.7455V23.4942H33.7227V23.4031H33.7V23.3121H33.6772V23.2211H33.6544V23.1528H33.6317V23.0846H33.6089V23.0163H33.5862V22.948H33.5634V22.857H33.5407V22.7888H33.5179V22.7205H33.4952V22.6522H33.4724V22.584H33.4496V22.5157H33.4269V22.4474H33.4041V22.4019H33.3814V22.3337H33.3586V22.2654H33.3359V22.2199H33.3131V22.1516H33.2904V22.0834H33.2676V22.0378H33.2449V21.9696H33.2221V21.9241H33.1993V21.8558H33.1766V21.8103H33.2221V21.8331H33.2449V21.8558H33.2904V21.8786H33.3131V21.9013H33.3586V21.9241H33.3814V21.9468H33.4269V21.9696H33.4496V21.9923H33.4952V22.0151H33.5179V22.0378H33.5407V22.0606H33.5862V22.0834H33.6089V22.1061H33.6544V22.1289H33.6772V22.1516H33.7V22.1744H33.7455V22.1971H33.7682V22.2199H33.8137V22.2426H33.8365V22.2654H33.8592V22.2882H33.9047V22.3109H33.9275V22.3337H33.9503V22.3564H33.9958V22.3792H34.0185V22.4019H34.0413V22.4247H34.0868V22.4474H34.1095V22.4702H34.1323V22.4929H34.1778V22.5157H34.2006V22.5385H34.2233V22.5612H34.2688V22.584H34.2916V22.6067H34.3143V22.6295H34.3598V22.6522H34.3826V22.675H34.4054V22.6977H34.4509V22.7205H34.4736V22.7433H34.4964V22.766H34.5191V22.7888H34.5646V22.8115H34.5874V22.8343H34.6101V22.857H34.6557V22.8798H34.6784V22.9025H34.7012V22.9253H34.7239V22.948H34.7694V22.9708H34.7922V22.9936H34.8149V23.0163H34.8377V23.0391H34.8832V23.0618H34.906V23.0846H34.9287V23.1073H34.9742V23.1301H34.997V23.1528H35.0197V23.1756H35.0425V23.1983H35.088V23.2894H35.1108V23.3576H35.1335V23.4487H35.1563V23.5397H35.179V23.6534H35.2018V23.7672H35.2245V23.881H35.2473V23.9948H35.27V24.1313H35.2928V24.2451H35.3155V24.3588H35.3383V24.4726H35.3611V24.6319H35.3838V24.8367H35.4066V25.0187H35.4293V25.2008H35.4521V25.3828H35.4748V25.5649H35.4976V25.7469H35.5203V26.4523H35.5431V27.3852H35.5203V27.7721H35.4976V28.1589H35.4748V28.4092H35.4521V28.5685H35.4293V28.7278H35.4066V28.8871H35.3838V29.0236H35.3611V29.1829H35.3383V29.3422H35.3155V29.4787H35.2928V29.6152H35.27V29.7062H35.2473V29.82H35.2245V29.911H35.2018V30.0021H35.179V30.0931H35.1563V30.1841H35.1335V30.2751H35.1108V30.3661H35.088V30.4572H35.0652V30.5482H35.0425V30.6619H35.0197V30.753H34.997V30.844H34.9742V30.9122H34.9515V30.9805H34.9287V31.0488H34.906V31.117H34.8832V31.1853H34.8605V31.2308H34.8377V31.2991H34.8149V31.3673H34.7922V31.4356H34.7694V31.5039H34.7467V31.5721H34.7239V31.6404H34.7012V31.7087H34.6784V31.7769H34.6557V31.8452H34.6329V31.9135H34.6101V31.9817H34.5874V32.05H34.5646V32.0955H34.5419V32.1638H34.5191V32.2093H34.4964V32.2548H34.4736V32.3231H34.4509V32.3686H34.4281V32.4141H34.4054V32.4823H34.3826V32.5278H34.3598V32.5734H34.3371V32.6416H34.3143V32.6871H34.2916V32.7326H34.2688V32.8009H34.2461V32.8464H34.2233V32.8919H34.2006V32.9602H34.1778V33.0057H34.155V33.0512H34.1323V33.0967H34.1095V33.1422H34.0868V33.1877H34.064V33.2332H34.0413V33.2788H34.0185V33.3243H33.9958V33.3698H33.973V33.4153H33.9503V33.4608H33.9275V33.5063H33.9047V33.5518H33.882V33.5973H33.8592V33.6201H33.8365V33.6656H33.8137V33.7111H33.791V33.7566H33.7682V33.8021H33.7455V33.8249H33.7227V33.8704H33.7V33.9159H33.6772V33.9614H33.6544V34.0069H33.6317V34.0297H33.6089V34.0752H33.5862V34.1207H33.5634V34.1434H33.5407V34.189H33.5179V34.2345H33.4952V34.2572H33.4724V34.3027H33.4496V34.3255H33.4269V34.371H33.4041V34.4165H33.3814V34.4393H33.3586V34.4848H33.3359V34.5075H33.3131V34.553H33.2904V34.5985H33.2676V34.6213H33.2449V34.6668H33.2221V34.6896H33.1993V34.7351H33.1766V34.7806H33.1538V34.8033H33.1311V34.8488H33.1083V34.8716H33.0856V34.8944H33.0628V34.9399H33.0401V34.9626H33.0173V35.0081H32.9946V35.0309H32.9718V35.0536H32.949V35.0991H32.9263V35.1219H32.9035V35.1674H32.8808V35.1902H32.858V35.2357H32.8353V35.2584H32.8125V35.2812H32.7898V35.3267H32.767V35.3494H32.7442V35.395H32.7215V35.4177H32.6987V35.4405H32.676V35.486H32.6532V35.5087H32.6305V35.5315H32.6077V35.577H32.585V35.5998H32.5622V35.6225H32.5395V35.6453H32.5167V35.6908H32.4939V35.7135H32.4712V35.7363H32.4484V35.759H32.4257V35.8045H32.4029V35.8273H32.3802V35.8501H32.3574V35.8728H32.3347V35.9183H32.3119V35.9411H32.2891V35.9638H32.2664V35.9866H32.2436V36.0093H32.2209V36.0549H32.1981V36.0776H32.1754V36.1004H32.1526V36.1231H32.1299V36.1686H32.1071V36.1914H32.0844V36.2141H32.0616V36.2369H32.0388V36.2596H32.0161V36.2824H31.9933V36.3052H31.9706V36.3507H31.9478V36.3734H31.9251V36.3962H31.9023V36.4189H31.8796V36.4417H31.8568V36.4644H31.8341V36.4872H31.8113V36.5099H31.7885V36.5327H31.7658V36.5555H31.743V36.5782H31.7203V36.6237H31.6975V36.6465H31.6748V36.6692H31.652V36.692H31.6293V36.7147H31.6065V36.7375H31.5837V36.7603H31.561V36.783H31.5382V36.8058H31.5155V36.8285H31.4927V36.8513H31.47V36.874H31.4472V36.8968H31.4245V36.9195H31.4017V36.9423H31.379V36.965H31.3562V36.9878H31.3334V37.0106H31.3107V37.0333H31.2879V37.0561H31.2652V37.0788H31.2424V37.1016H31.2197V37.1243H31.1969V37.1471H31.1742V37.1698H31.1514V37.1926H31.1287V37.2153H31.1059V37.2381H31.0831V37.2609H31.0604V37.2836H31.0376V37.3064H31.0149V37.3291H30.9921V37.3519H30.9694V37.3746H30.9466V37.3974H30.9239V37.4201H30.9011V37.4429H30.8783V37.4657H30.8556V37.4884H30.8101V37.5112H30.7873V37.5339H30.7646V37.5567H30.7418V37.5794H30.7191V37.6022H30.6963V37.6249H30.6508V37.6477H30.628V37.6704H30.6053V37.6932H30.5825V37.716H30.5598V37.7387H30.537V37.7615H30.4915V37.7842H30.4688V37.807H30.446V37.8297H30.4233V37.8525H30.4005V37.8752H30.3777V37.898H30.3322V37.9207H30.3095V37.9435H30.2867V37.9663H30.264V37.989H30.2412V38.0118H30.2185V38.0345H30.1729V38.0573H30.1502V38.08H30.1274V38.1028H30.0819V38.1255H30.0592V38.1483H30.0364V38.1711H30.0137V38.1938H29.9682V38.2166H29.9454V38.2393H29.9226V38.2621H29.8771V38.2848H29.8544V38.3076H29.8316V38.3303H29.8089V38.3531H29.7634V38.3758H29.7406V38.3986H29.7178V38.4214H29.6723V38.4441H29.6496V38.4669H29.6268V38.4896H29.5813V38.5124H29.5586V38.5351H29.5131V38.5579H29.4903V38.5806H29.4675V38.6034H29.422V38.6262H29.3993V38.6489H29.3538V38.6717H29.331V38.6944H29.3083V38.7172H29.2628V38.7399H29.24V38.7627H29.1945V38.7854H29.1717V38.8082H29.1262V38.8309H29.0807V38.8537H29.058V38.8765H29.0124V38.8992H28.9897V38.922H28.9442V38.9447H28.8987V38.9675H28.8759V38.9902H28.8304V39.013H28.8077V39.0357H28.7621V39.0585H28.7394V39.0812H28.6939V39.104H28.6484V39.1268H28.6256V39.1495H28.5801V39.1723H28.5574V39.195H28.5118V39.2178H28.4663V39.2405H28.4208V39.2633H28.3981V39.286H28.3526V39.3088H28.307V39.3316H28.2615V39.3543H28.216V39.3771H28.1705V39.3998H28.1478V39.4226H28.1023V39.4453H28.0567V39.4681H28.0112V39.4908H27.9657V39.5136H27.9202V39.5363H27.8975V39.5591H27.8519V39.5819H27.8064V39.6046H27.7609V39.6274H27.7154V39.6501H27.6699V39.6729H27.6472V39.6956H27.6016V39.7184H27.5561V39.7411H27.5106V39.7639H27.4651V39.7866H27.4196V39.8094H27.3513V39.8322H27.3058V39.8549H27.2603V39.8777H27.2148V39.9004H27.1465V39.9232H27.101V39.9459H27.0555V39.9687H27.01V39.9914H26.9645V40.0142H26.8962V40.037H26.8507V40.0597H26.8052V40.0825H26.7597V40.1052H26.7142V40.128H26.6459V40.1507H26.6004V40.1735H26.5549V40.1962H26.5094V40.219H26.4411V40.2417H26.3729V40.2645H26.3274V40.2873H26.2591V40.31H26.1908V40.3328H26.1226V40.3555H26.0771V40.3783H26.0088V40.401H25.9405V40.4238H25.8723V40.4465H25.8268V40.4693H25.7585V40.4921H25.6902V40.5148H25.622V40.5376H25.5765V40.5603H25.5082V40.5831H25.4399V40.6058H25.3717V40.6286H25.2806V40.6513H25.2124V40.6741H25.1214V40.6968H25.0531V40.7196H24.9621V40.7424H24.8711V40.7651H24.8028V40.7879H24.7118V40.8106H24.6435V40.8334H24.5525V40.8561H24.4842V40.8789H24.3932V40.9016H24.3022V40.9244H24.1884V40.9471H24.0746V40.9699H23.9609V40.9927H23.8471V41.0154H23.7561V41.0382H23.6423V41.0609H23.5285V41.0837H23.4148V41.1064H23.301V41.1292H23.1417V41.1519H22.9597V41.1747H22.7776V41.1975H22.5956V41.2202H22.4135V41.243H22.2315V41.2657H21.9812V41.2885H21.6171V41.3112" fill="url(#paint3_linear)"/>
<path d="M20.6614 34.5075V34.4848H20.3201V34.462H20.0471V34.4393H19.8878V34.4165H19.7285V34.3937H19.592V34.371H19.4327V34.3482H19.2962V34.3255H19.2051V34.3027H19.1141V34.28H19.0231V34.2572H18.9321V34.2345H18.8411V34.2117H18.75V34.189H18.659V34.1662H18.568V34.1434H18.4997V34.1207H18.4315V34.0979H18.3632V34.0752H18.2949V34.0524H18.2267V34.0297H18.1812V34.0069H18.1129V33.9842H18.0446V33.9614H17.9764V33.9387H17.9081V33.9159H17.8626V33.8931H17.7943V33.8704H17.7488V33.8476H17.7033V33.8249H17.6578V33.8021H17.6123V33.7794H17.544V33.7566H17.4985V33.7339H17.453V33.7111H17.4075V33.6883H17.362V33.6656H17.3165V33.6428H17.2482V33.6201H17.2027V33.5973H17.1799V33.5746H17.1344V33.5518H17.0889V33.5291H17.0434V33.5063H17.0207V33.4836H16.9752V33.4608H16.9296V33.438H16.8841V33.4153H16.8386V33.3925H16.8159V33.3698H16.7704V33.347H16.7249V33.3243H16.6793V33.3015H16.6566V33.2788H16.6111V33.256H16.5883V33.2332H16.5428V33.2105H16.5201V33.1877H16.4745V33.165H16.4518V33.1422H16.4063V33.1195H16.3835V33.0967H16.338V33.074H16.3153V33.0512H16.2698V33.0285H16.247V33.0057H16.2015V32.9829H16.1787V32.9602H16.156V32.9374H16.1105V32.9147H16.0877V32.8919H16.065V32.8692H16.0194V32.8464H15.9967V32.8237H15.9739V32.8009H15.9512V32.7782H15.9057V32.7554H15.8829V32.7326H15.8602V32.7099H15.8147V32.6871H15.7919V32.6644H15.7691V32.6416H15.7464V32.6189H15.7009V32.5961H15.6781V32.5734H15.6554V32.5506H15.6326V32.5278H15.6099V32.5051H15.5871V32.4823H15.5644V32.4596H15.5416V32.4368H15.4961V32.4141H15.4733V32.3913H15.4506V32.3686H15.4278V32.3458H15.4051V32.3231H15.3823V32.3003H15.3596V32.2775H15.3368V32.2548H15.314V32.232H15.2913V32.2093H15.2685V32.1865H15.2458V32.1638H15.223V32.141H15.2003V32.1183H15.1775V32.0955H15.1548V32.0728H15.132V32.05H15.1093V32.0272H15.0865V32.0045H15.0637V31.9817H15.041V31.959H15.0182V31.9362H14.9955V31.9135H14.9727V31.8907H14.95V31.868H14.9272V31.8452H14.9045V31.8224H14.8817V31.7997H14.859V31.7769H14.8362V31.7542H14.8134V31.7087H14.7907V31.6859H14.7679V31.6632H14.7452V31.6404H14.7224V31.6177H14.6997V31.5949H14.6769V31.5721H14.6542V31.5266H14.6314V31.5039H14.6086V31.4811H14.5859V31.4584H14.5631V31.4129H14.5404V31.3901H14.5176V31.3674H14.4949V31.3446H14.4721V31.2991H14.4494V31.2763H14.4266V31.2536H14.4039V31.2081H14.3811V31.1853H14.3583V31.1626H14.3356V31.117H14.3128V31.0943H14.2901V31.0715H14.2673V31.026H14.2446V31.0033H14.2218V30.9578H14.1991V30.935H14.1763V30.8895H14.1536V30.8667H14.1308V30.8212H14.108V30.7757H14.0853V30.753H14.0625V30.6847H14.0853V30.7075H14.108V30.7302H14.1308V30.753H14.1763V30.7757H14.1991V30.7985H14.2446V30.8212H14.2673V30.844H14.2901V30.8667H14.3356V30.8895H14.3583V30.9123H14.4039V30.935H14.4266V30.9578H14.4721V30.9805H14.4949V31.0033H14.5404V31.026H14.5631V31.0488H14.6086V31.0715H14.6542V31.0943H14.6769V31.117H14.7224V31.1398H14.7452V31.1626H14.7907V31.1853H14.8362V31.2081H14.859V31.2308H14.9045V31.2536H14.95V31.2763H14.9955V31.2991H15.0182V31.3218H15.0637V31.3446H15.1093V31.3674H15.1548V31.3901H15.1775V31.4129H15.223V31.4356H15.2685V31.4584H15.314V31.4811H15.3596V31.5039H15.4051V31.5266H15.4506V31.5494H15.4961V31.5721H15.5416V31.5949H15.5871V31.6177H15.6326V31.6404H15.6781V31.6632H15.7236V31.6859H15.7691V31.7087H15.8147V31.7314H15.8602V31.7542H15.9057V31.7769H15.9512V31.7997H15.9967V31.8224H16.065V31.8452H16.1105V31.868H16.156V31.8907H16.2015V31.9135H16.2698V31.9362H16.3153V31.959H16.3608V31.9817H16.429V32.0045H16.4745V32.0272H16.5428V32.05H16.5883V32.0728H16.6566V32.0955H16.7249V32.1183H16.7704V32.141H16.8386V32.1638H16.8841V32.1865H16.9524V32.2093H17.0207V32.232H17.0889V32.2548H17.1572V32.2775H17.2255V32.3003H17.2937V32.3231H17.362V32.3458H17.4303V32.3686H17.5213V32.3913H17.5895V32.4141H17.6578V32.4368H17.7488V32.4596H17.8171V32.4823H17.9081V32.5051H17.9991V32.5278H18.0674V32.5506H18.1584V32.5734H18.2722V32.5961H18.3632V32.6189H18.477V32.6416H18.568V32.6644H18.6818V32.6871H18.8183V32.7099H18.9321V32.7326H19.0686V32.7554H19.2051V32.7782H19.3644V32.8009H19.5465V32.8237H19.7285V32.8464H19.9788V32.8692H20.2974V32.8919H21.5489V32.8692H21.913V32.8464H22.1178V32.8237H22.3225V32.8009H22.5273V32.7782H22.6639V32.7554H22.7776V32.7326H22.9142V32.7099H23.0507V32.6871H23.1872V32.6644H23.2783V32.6416H23.392V32.6189H23.483V32.5961H23.5968V32.5734H23.6878V32.5506H23.7789V32.5278H23.8699V32.5051H23.9609V32.4823H24.0292V32.4596H24.1202V32.4368H24.1884V32.4141H24.2795V32.3913H24.3477V32.3686H24.4388V32.3458H24.507V32.3231H24.5753V32.3003H24.6208V32.2775H24.6891V32.2548H24.7573V32.232H24.8256V32.2093H24.8938V32.1865H24.9621V32.1638H25.0304V32.141H25.0986V32.1183H25.1442V32.0955H25.2124V32.0728H25.2579V32.05H25.3262V32.0272H25.3717V32.0045H25.44V31.9817H25.4855V31.959H25.5537V31.9362H25.5993V31.9135H25.6448V31.8907H25.713V31.868H25.7585V31.8452H25.8268V31.8224H25.8723V31.7997H25.9178V31.7769H25.9633V31.7542H26.0088V31.7314H26.0543V31.7087H26.0999V31.6859H26.1454V31.6632H26.2136V31.6404H26.2591V31.6177H26.3047V31.5949H26.3502V31.5721H26.3957V31.5494H26.4412V31.5266H26.4867V31.5039H26.5322V31.4811H26.5777V31.4584H26.6232V31.4356H26.6687V31.4129H26.6915V31.3901H26.737V31.3674H26.7825V31.3446H26.828V31.3218H26.8735V31.2991H26.919V31.2763H26.9418V31.2536H26.9873V31.2308H27.0328V31.2081H27.0783V31.1853H27.1238V31.1626H27.1693V31.1398H27.2148V31.117H27.2376V31.0943H27.2831V31.0715H27.3286V31.0488H27.3514V31.026H27.3969V31.0033H27.4196V30.9805H27.4652V30.9578H27.5107V30.935H27.5334V30.9123H27.5789V30.8895H27.6244V30.8667H27.6472V30.844H27.6927V30.8212H27.7382V30.7985H27.761V30.7757H27.8065V30.753H27.8292V30.7302H27.8747V30.7075H27.8975V30.6847H27.943V30.7302H27.9202V30.753H27.8975V30.7985H27.8747V30.8212H27.852V30.8667H27.8292V30.8895H27.8065V30.9123H27.7837V30.9578H27.761V30.9805H27.7382V31.026H27.7155V31.0488H27.6927V31.0715H27.6699V31.117H27.6472V31.1398H27.6244V31.1626H27.6017V31.1853H27.5789V31.2308H27.5562V31.2536H27.5334V31.2763H27.5107V31.2991H27.4879V31.3446H27.4652V31.3674H27.4424V31.3901H27.4196V31.4129H27.3969V31.4356H27.3741V31.4584H27.3514V31.5039H27.3286V31.5266H27.3059V31.5494H27.2831V31.5721H27.2604V31.5949H27.2376V31.6177H27.2148V31.6404H27.1921V31.6859H27.1693V31.7087H27.1466V31.7314H27.1238V31.7542H27.1011V31.7769H27.0783V31.7997H27.0556V31.8224H27.0328V31.8452H27.0101V31.868H26.9873V31.8907H26.9645V31.9135H26.9418V31.9362H26.919V31.959H26.8963V31.9817H26.8735V32.0045H26.8508V32.0272H26.828V32.05H26.8053V32.0728H26.7825V32.0955H26.7597V32.1183H26.737V32.141H26.7142V32.1638H26.6915V32.1865H26.6687V32.2093H26.646V32.232H26.6232V32.2548H26.6005V32.2775H26.5777V32.3003H26.5322V32.3231H26.5094V32.3458H26.4867V32.3686H26.4639V32.3913H26.4412V32.4141H26.4184V32.4368H26.3729V32.4596H26.3502V32.4823H26.3274V32.5051H26.3047V32.5278H26.2819V32.5506H26.2591V32.5734H26.2364V32.5961H26.1909V32.6189H26.1681V32.6416H26.1454V32.6644H26.1226V32.6871H26.0771V32.7099H26.0543V32.7326H26.0316V32.7554H25.9861V32.7782H25.9633V32.8009H25.9406V32.8237H25.8951V32.8464H25.8723V32.8692H25.8496V32.8919H25.804V32.9147H25.7813V32.9374H25.7585V32.9602H25.7358V32.9829H25.6903V33.0057H25.6448V33.0285H25.622V33.0512H25.5765V33.074H25.5537V33.0967H25.5082V33.1195H25.4855V33.1422H25.44V33.165H25.4172V33.1877H25.3717V33.2105H25.3489V33.2332H25.3034V33.256H25.2807V33.2788H25.2352V33.3015H25.2124V33.3243H25.1669V33.347H25.1214V33.3698H25.0986V33.3925H25.0531V33.4153H25.0076V33.438H24.9621V33.4608H24.9166V33.4836H24.8938V33.5063H24.8483V33.5291H24.8028V33.5518H24.7573V33.5746H24.7346V33.5973H24.6891V33.6201H24.6435V33.6428H24.598V33.6656H24.5525V33.6883H24.4843V33.7111H24.4388V33.7339H24.3932V33.7566H24.3477V33.7794H24.3022V33.8021H24.234V33.8249H24.1884V33.8476H24.1429V33.8704H24.0974V33.8931H24.0519V33.9159H23.9837V33.9387H23.9154V33.9614H23.8699V33.9842H23.8016V34.0069H23.7334V34.0297H23.6651V34.0524H23.5968V34.0752H23.5513V34.0979H23.483V34.1207H23.4148V34.1434H23.3465V34.1662H23.2555V34.189H23.1645V34.2117H23.0735V34.2345H23.0052V34.2572H22.9142V34.28H22.8232V34.3027H22.7321V34.3255H22.6411V34.3482H22.5046V34.371H22.3453V34.3937H22.2088V34.4165H22.0495V34.4393H21.913V34.462H21.6627V34.4848H21.3213V34.5075" fill="url(#paint4_linear)"/>
<path d="M11.5424 8.59427C11.241 8.59427 10.9797 8.48733 10.7582 8.27138C10.543 8.05043 10.4354 7.79012 10.4354 7.4877C10.4354 7.18666 10.543 6.92498 10.7582 6.70425C10.9797 6.48831 11.241 6.38023 11.5424 6.38023C11.8438 6.38023 12.1051 6.48831 12.3267 6.70425C12.5419 6.92498 12.6498 7.18666 12.6498 7.4877C12.6498 7.79012 12.5419 8.05043 12.3267 8.27138C12.1051 8.48733 11.8438 8.59427 11.5424 8.59427Z" fill="#4F4C4C"/>
<path d="M39.3768 19.977C39.0751 19.977 38.8146 19.869 38.5927 19.653C38.3779 19.4334 38.2698 19.1719 38.2698 18.8706C38.2698 18.5694 38.3779 18.3079 38.5927 18.0858C38.8146 17.8712 39.0751 17.7627 39.3768 17.7627C39.6781 17.7627 39.9396 17.8712 40.161 18.0858C40.3758 18.3079 40.4839 18.5694 40.4839 18.8706C40.4839 19.1719 40.3758 19.4334 40.161 19.653C39.9396 19.869 39.6781 19.977 39.3768 19.977Z" fill="#393536"/>
<path d="M1.48922 28.1978C1.17172 29.7395 1.62131 30.5855 1.87676 31.0274C2.55621 32.207 3.82923 32.9398 5.65843 33.2051C5.66837 33.2061 5.67816 33.2077 5.68803 33.2098C5.69513 33.2114 6.03459 33.2715 6.51938 33.2942C6.73112 33.7728 6.9646 34.2386 7.21953 34.6898C7.09306 34.6966 6.96818 34.6996 6.8496 34.6996C6.11503 34.6996 5.55407 34.6058 5.4444 34.5853C3.20891 34.259 1.55651 33.269 0.666579 31.7255C0.220547 30.9518 -0.282015 29.4218 0.228013 27.5536C0.228013 27.5536 0.805775 27.978 1.48922 28.1978" fill="#393536"/>
<path d="M2.65424 25.7296C1.8683 25.7296 1.23125 25.0924 1.23125 24.3065C1.23125 23.5206 1.8683 22.8831 2.65424 22.8831C3.44026 22.8831 4.07722 23.5206 4.07722 24.3065C4.07722 25.0924 3.44026 25.7296 2.65424 25.7296V25.7296ZM16.2618 14.5419C15.7213 14.7522 15.2197 14.9192 14.6888 15.1411C10.2729 16.9888 6.51802 19.3814 3.89365 21.9637C3.52309 21.7661 3.10213 21.6521 2.65424 21.6521C1.19054 21.6521 0 22.8424 0 24.3065C0 25.7704 1.19054 26.9609 2.65424 26.9609C4.11811 26.9609 5.30864 25.7704 5.30864 24.3065C5.30864 23.8014 5.1634 23.3296 4.91683 22.9278C7.42005 20.4894 11.0522 18.1759 15.2275 16.4299C16.353 15.9596 17.4768 15.5238 18.588 15.1242" fill="#393536"/>
<path d="M23.1024 13.69C25.1075 13.1384 27.0112 12.7363 28.7344 12.5108C32.8915 11.9647 34.8152 12.6003 35.2291 13.3748C35.6107 14.0912 35.144 15.4904 33.9487 17.2159L35.0971 18.0111C36.6672 15.7459 37.1262 13.964 36.4608 12.7181C34.9802 9.94159 28.0905 10.6522 20.7852 12.922" fill="#393536"/>
<path d="M20.7846 12.922C13.4786 10.6509 6.588 9.94159 5.10713 12.7181C4.44219 13.964 4.9012 15.7448 6.4704 18.0112L7.61952 17.2159C6.42435 15.4904 5.95778 14.0912 6.33938 13.3748C6.75359 12.6003 8.67699 11.9647 12.8338 12.5108C16.7191 13.0203 21.5159 14.4116 26.341 16.4299C33.2563 19.3227 38.5697 23.6917 39.8766 27.558C40.3212 28.877 40.2593 30.0435 39.6918 31.0274C39.0114 32.207 37.739 32.9398 35.8981 33.2066C35.894 33.2077 35.7752 33.2252 35.5718 33.2437C35.4721 33.4706 35.369 33.6958 35.258 33.9177C35.1294 34.1757 34.9927 34.4282 34.8511 34.6766C35.6023 34.6689 36.0822 34.5921 36.1111 34.5874C36.3907 34.5458 36.6624 34.495 36.9234 34.4343C37.1851 34.3728 37.4377 34.3023 37.6793 34.2202C37.8006 34.1796 37.9194 34.1366 38.0359 34.0918C39.3138 33.5889 40.2882 32.7891 40.9019 31.7255C41.6676 30.3982 41.7707 28.8015 41.1991 27.1108C39.7482 22.8159 34.2613 18.2287 26.8797 15.1411C25.6416 14.6241 24.3737 14.1367 23.1023 13.69L20.7846 12.922" fill="#4F4C4C"/>
<path d="M56.1433 31.4174C55.7521 31.4018 55.4186 31.261 55.1444 30.9951C54.8772 30.7275 54.7405 30.3987 54.7327 30.0064V15.9086C54.7327 15.5247 54.8702 15.1952 55.1444 14.9213C55.4186 14.6393 55.7521 14.498 56.1433 14.498C56.5272 14.498 56.8567 14.6393 57.1315 14.9213C57.4055 15.1952 57.5425 15.5247 57.5425 15.9086V28.5952H66.7139C67.0982 28.5952 67.4277 28.7291 67.7012 28.9947C67.9761 29.2778 68.1128 29.6149 68.1128 30.0064C68.1128 30.3987 67.9761 30.7323 67.7012 31.0057C67.4277 31.2807 67.0982 31.4174 66.7139 31.4174H56.1433Z" fill="#4F4C4C"/>
<path d="M72.2288 30.0064C72.2288 30.3912 72.0913 30.7212 71.8171 30.9951C71.5425 31.2768 71.2093 31.4174 70.8177 31.4174C70.4336 31.4174 70.1041 31.2768 69.8302 30.9951C69.5553 30.7212 69.4185 30.3912 69.4185 30.0064V20.589C69.4185 20.205 69.5553 19.8751 69.8302 19.6001C70.1041 19.3182 70.4336 19.1774 70.8177 19.1774C71.2093 19.1774 71.5425 19.3182 71.8171 19.6001C72.0913 19.8751 72.2288 20.205 72.2288 20.589V30.0064ZM70.8177 17.3203C70.4336 17.3203 70.1 17.1831 69.8181 16.9082C69.5439 16.6263 69.4065 16.2938 69.4065 15.9086C69.4065 15.5247 69.5439 15.1916 69.8181 14.9094C70.1 14.6357 70.4336 14.498 70.8177 14.498C71.2016 14.498 71.5352 14.6357 71.8171 14.9094C72.0913 15.1916 72.2288 15.5247 72.2288 15.9086C72.2288 16.2938 72.0913 16.6263 71.8171 16.9082C71.5352 17.1831 71.2016 17.3203 70.8177 17.3203Z" fill="#4F4C4C"/>
<path d="M92.1654 27.7912C92.0835 27.7191 92.0041 27.6424 91.9286 27.5619C92.0048 27.6412 92.081 27.7204 92.1654 27.7912Z" fill="#4F4C4C"/>
<path d="M97.5192 26.0056C97.569 25.7777 97.6034 25.5449 97.6034 25.3036C97.5947 25.5496 97.5661 25.7824 97.5192 26.0056Z" fill="#4F4C4C"/>
<path d="M95.5807 28.3491C95.9102 28.2124 96.204 28.0224 96.4668 27.7912C96.1849 28.0276 95.8622 28.2231 95.4865 28.3608C95.1001 28.5123 94.7094 28.5892 94.3165 28.594C94.3299 28.594 94.344 28.5952 94.3574 28.5952C94.7725 28.5952 95.1805 28.5137 95.5807 28.3491Z" fill="#4F4C4C"/>
<path d="M99.0133 19.1886C98.6221 19.1886 98.2883 19.3302 98.0136 19.613C97.7399 19.8871 97.6027 20.217 97.6027 20.6006C97.6027 20.217 97.7435 19.8871 98.0257 19.613C98.3004 19.3302 98.6292 19.1886 99.0133 19.1886" fill="#4F4C4C"/>
<path d="M97.0541 27.1174C97.0526 27.1212 97.0507 27.1248 97.0493 27.1277L97.0503 27.1263C97.0514 27.1248 97.0526 27.1212 97.0541 27.1174Z" fill="#4F4C4C"/>
<path d="M91.5836 27.1277C91.6646 27.2512 91.7556 27.3664 91.8517 27.4751C91.757 27.3664 91.666 27.2512 91.5836 27.1277Z" fill="#4F4C4C"/>
<path d="M96.7813 27.4751C96.7555 27.5044 96.731 27.5332 96.7043 27.5619C96.7298 27.5332 96.7555 27.5044 96.7813 27.4751Z" fill="#4F4C4C"/>
<path d="M91.1125 26.0056C91.1196 26.0367 91.126 26.0668 91.133 26.0968C91.126 26.0668 91.1196 26.0367 91.1125 26.0056Z" fill="#4F4C4C"/>
<path d="M92.5507 31.145C92.4838 31.1234 92.4171 31.1003 92.35 31.0775C92.4171 31.1003 92.4831 31.1234 92.5507 31.145Z" fill="#4F4C4C"/>
<path d="M91.5784 27.1179C91.4127 26.8669 91.2891 26.6043 91.199 26.3319C91.2411 26.4676 91.2891 26.6005 91.3476 26.7269C91.4138 26.8671 91.4967 26.992 91.5784 27.1179Z" fill="#4F4C4C"/>
<path d="M97.4341 26.3319C97.4593 26.2552 97.4796 26.1756 97.4989 26.0968C97.4805 26.176 97.4582 26.2552 97.4341 26.3319Z" fill="#4F4C4C"/>
<path d="M96.4873 31.0083C96.4199 31.0335 96.3505 31.0538 96.2823 31.0775C96.3505 31.0538 96.4199 31.0335 96.4873 31.0083Z" fill="#4F4C4C"/>
<path d="M90.9703 30.4092C91.3465 30.6542 91.7379 30.8547 92.1445 31.0083C91.7379 30.8536 91.3472 30.6531 90.971 30.4067C90.971 30.4077 90.9703 30.4092 90.9703 30.4092" fill="#4F4C4C"/>
<path d="M94.3219 31.3946C94.937 31.3946 95.5224 31.3118 96.0818 31.145C95.5213 31.3107 94.9333 31.3946 94.316 31.3946C94.3183 31.3946 94.3201 31.3946 94.3219 31.3946Z" fill="#4F4C4C"/>
<path d="M89.6187 19.1886C89.2264 19.1886 88.8933 19.3302 88.6191 19.613C88.3456 19.8871 88.2081 20.217 88.2081 20.6006C88.2081 20.217 88.3492 19.8871 88.6311 19.613C88.906 19.3302 89.2346 19.1886 89.6187 19.1886" fill="#4F4C4C"/>
<path d="M96.7812 27.4751C96.8773 27.3664 96.9685 27.2512 97.0502 27.1277C96.9662 27.2512 96.8755 27.3664 96.7812 27.4751Z" fill="#4F4C4C"/>
<path d="M96.2822 31.0775C96.2156 31.1003 96.1494 31.1234 96.0818 31.145C96.1494 31.1234 96.2156 31.1003 96.2822 31.0775Z" fill="#4F4C4C"/>
<path d="M94.3098 31.3946C94.3126 31.3946 94.3142 31.3946 94.3164 31.3946C93.6991 31.3946 93.1116 31.3107 92.5507 31.145C93.1095 31.3118 93.6961 31.3946 94.3098 31.3946Z" fill="#4F4C4C"/>
<path d="M92.3499 31.0775C92.2815 31.0538 92.213 31.0335 92.1445 31.0083C92.213 31.0335 92.2815 31.0538 92.3499 31.0775Z" fill="#4F4C4C"/>
<path d="M91.1335 26.0968C91.1535 26.1756 91.1733 26.2552 91.199 26.3319C91.1751 26.2552 91.1528 26.176 91.1335 26.0968Z" fill="#4F4C4C"/>
<path d="M91.03 25.3036C91.03 25.546 91.0634 25.7777 91.1126 26.0056C91.0659 25.7824 91.037 25.5496 91.03 25.3036Z" fill="#4F4C4C"/>
<path d="M91.5838 27.1277C91.5814 27.1248 91.5795 27.1212 91.5783 27.1174C91.5795 27.1212 91.5807 27.1234 91.5833 27.1263C91.5833 27.1263 91.5833 27.1263 91.5838 27.1277Z" fill="#4F4C4C"/>
<path d="M91.03 20.6006C91.03 20.217 90.893 19.8871 90.6183 19.613C90.3446 19.3302 90.011 19.1886 89.6187 19.1886C90.0026 19.1886 90.3325 19.3302 90.6065 19.613C90.8882 19.8871 91.03 20.217 91.03 20.6006Z" fill="#4F4C4C"/>
<path d="M96.4872 31.0083C96.8952 30.8547 97.2864 30.6542 97.6621 30.4092C97.6621 30.4092 97.6621 30.4077 97.6612 30.4067C97.2853 30.6531 96.8946 30.8536 96.4872 31.0083Z" fill="#4F4C4C"/>
<path d="M91.9286 27.5619C91.9024 27.5332 91.8771 27.5044 91.8517 27.4751C91.8771 27.5044 91.9028 27.5332 91.9286 27.5619Z" fill="#4F4C4C"/>
<path d="M97.4341 26.3319C97.3428 26.6043 97.2193 26.8671 97.0538 27.1179C97.136 26.9932 97.2186 26.8671 97.2852 26.7269C97.344 26.6005 97.392 26.4676 97.4341 26.3319Z" fill="#4F4C4C"/>
<path d="M97.4989 26.0968C97.5067 26.0668 97.5133 26.0367 97.5192 26.0056C97.5126 26.0367 97.5074 26.0668 97.4989 26.0968Z" fill="#4F4C4C"/>
<path d="M100.424 20.6006C100.424 20.217 100.287 19.8871 100.013 19.613C99.7392 19.3302 99.4056 19.1886 99.0133 19.1886C99.3983 19.1886 99.7266 19.3302 100.001 19.613C100.283 19.8871 100.424 20.217 100.424 20.6006Z" fill="#4F4C4C"/>
<path d="M96.7043 27.5619C96.6288 27.6424 96.5485 27.7179 96.4668 27.7912C96.551 27.7204 96.6283 27.6412 96.7043 27.5619Z" fill="#4F4C4C"/>
<path d="M94.2745 28.5952C94.2889 28.5952 94.3028 28.594 94.3164 28.594C93.923 28.5892 93.533 28.5123 93.1459 28.3608C92.7698 28.2219 92.4476 28.0276 92.1654 27.7912C92.4275 28.0224 92.7218 28.2113 93.0526 28.3491C93.4524 28.5137 93.8593 28.5952 94.2745 28.5952Z" fill="#4F4C4C"/>
<path d="M100.001 19.613C99.7267 19.3302 99.3972 19.1886 99.0133 19.1886C98.6292 19.1886 98.3004 19.3302 98.0257 19.613C97.7436 19.8871 97.6027 20.217 97.6027 20.6006V25.3036C97.6027 25.5449 97.569 25.7777 97.5192 26.0056C97.5133 26.0367 97.5067 26.0668 97.4989 26.0968C97.4796 26.1756 97.4593 26.2552 97.4341 26.3319C97.392 26.467 97.344 26.6005 97.2853 26.7265C97.2186 26.8671 97.136 26.9932 97.0539 27.1179C97.0525 27.1215 97.0514 27.1249 97.0502 27.1263L97.0493 27.1277C96.9685 27.2512 96.8773 27.3664 96.7813 27.4751C96.7555 27.5044 96.7303 27.5332 96.7043 27.5619C96.6283 27.6412 96.551 27.7204 96.4668 27.7912C96.204 28.0224 95.9102 28.2124 95.5807 28.3491C95.1805 28.5137 94.7725 28.5952 94.3574 28.5952C94.344 28.5952 94.3299 28.594 94.3165 28.594C94.3028 28.594 94.2889 28.5952 94.2746 28.5952C93.8593 28.5952 93.4524 28.5137 93.0526 28.3491C92.7218 28.2124 92.4276 28.0224 92.1654 27.7912C92.081 27.7204 92.0048 27.6412 91.9286 27.5619C91.9028 27.5332 91.8771 27.5044 91.8516 27.4751C91.7556 27.3664 91.6646 27.2512 91.5836 27.1277C91.5831 27.1263 91.5831 27.1263 91.5831 27.1263C91.5806 27.1236 91.5795 27.1204 91.5784 27.1179C91.4967 26.992 91.4138 26.8671 91.3476 26.7265C91.2891 26.6005 91.2411 26.4676 91.199 26.3319C91.1733 26.2552 91.1535 26.1756 91.1335 26.0968C91.126 26.0668 91.1196 26.0367 91.1132 26.0056C91.0634 25.7777 91.03 25.5449 91.03 25.3036V20.6006C91.03 20.217 90.8882 19.8871 90.6065 19.613C90.3325 19.3302 90.0026 19.1886 89.6194 19.1886C89.2346 19.1886 88.906 19.3302 88.6311 19.613C88.3492 19.8871 88.2081 20.217 88.2081 20.6006V25.3036C88.2081 25.8208 88.2591 26.272 88.361 26.6559C88.7847 28.2938 89.6465 29.5408 90.9478 30.395C90.9556 30.3998 90.9626 30.4035 90.9703 30.4092C90.9703 30.4092 90.971 30.4077 90.971 30.4067C91.3472 30.653 91.7383 30.8536 92.1445 31.0083C92.213 31.0335 92.2815 31.0538 92.3511 31.0775C92.4171 31.1003 92.4838 31.1234 92.5507 31.145C93.1116 31.3107 93.6991 31.3946 94.3165 31.3946C94.9333 31.3946 95.5213 31.3107 96.0818 31.145C96.1494 31.1234 96.2156 31.1003 96.2834 31.0775C96.3505 31.0538 96.4199 31.0335 96.4873 31.0083C96.8946 30.8536 97.2853 30.653 97.6612 30.4067C97.6621 30.4077 97.6621 30.4092 97.6621 30.4092C97.6694 30.4035 97.6778 30.3998 97.6849 30.395C98.9862 29.5408 99.8484 28.2938 100.272 26.6559C100.374 26.272 100.424 25.8208 100.424 25.3036V20.6006C100.424 20.217 100.283 19.8871 100.001 19.613Z" fill="#4F4C4C"/>
<path d="M105.599 30.0064C105.599 30.3912 105.461 30.7212 105.187 30.9951C104.912 31.2768 104.579 31.4174 104.187 31.4174C103.803 31.4174 103.473 31.2768 103.2 30.9951C102.926 30.7212 102.788 30.3912 102.788 30.0064V20.589C102.788 20.205 102.926 19.8751 103.2 19.6001C103.473 19.3182 103.803 19.1774 104.187 19.1774C104.579 19.1774 104.912 19.3182 105.187 19.6001C105.461 19.8751 105.599 20.205 105.599 20.589V30.0064ZM104.187 17.3203C103.803 17.3203 103.47 17.1831 103.187 16.9082C102.913 16.6263 102.776 16.2938 102.776 15.9086C102.776 15.5247 102.913 15.1916 103.187 14.9094C103.47 14.6357 103.803 14.498 104.187 14.498C104.571 14.498 104.905 14.6357 105.187 14.9094C105.461 15.1916 105.599 15.5247 105.599 15.9086C105.599 16.2938 105.461 16.6263 105.187 16.9082C104.905 17.1831 104.571 17.3203 104.187 17.3203Z" fill="#4F4C4C"/>
<path d="M85.7861 19.6242C85.5112 19.3422 85.1826 19.2006 84.7976 19.2006C84.0845 19.2006 83.6337 19.5462 83.446 20.2361C82.4429 19.5702 81.3414 19.2242 80.1413 19.2006H80.1065C79.2281 19.2162 78.3978 19.3934 77.6141 19.7311C76.3207 20.3034 75.3445 21.239 74.6862 22.5401C74.2232 23.4341 73.9927 24.3552 73.9927 25.3036C73.9927 25.7189 74.0359 26.1301 74.1224 26.5383C74.451 28.1764 75.3247 29.4616 76.7437 30.395C77.7941 31.085 78.903 31.4295 80.0712 31.4295C80.4869 31.4295 80.907 31.3862 81.3293 31.3011C81.3964 31.2874 81.4631 31.2718 81.5298 31.2563C81.5466 31.2531 81.5639 31.2483 81.5812 31.2458C81.5999 31.2394 81.6185 31.2362 81.6376 31.2326L81.6365 31.229C81.8693 31.1678 82.0818 31.0515 82.27 30.8679C82.5442 30.5867 82.6816 30.2547 82.6816 29.8683C82.6816 29.4855 82.5442 29.152 82.27 28.87C81.9881 28.5952 81.6545 28.4579 81.2706 28.4579C81.1398 28.4579 81.0162 28.48 80.8967 28.5123L80.8961 28.5084C80.6423 28.576 80.3832 28.6072 80.1185 28.6072C79.8989 28.6072 79.6716 28.5844 79.4363 28.5364C78.684 28.3803 78.0606 27.9964 77.5668 27.3852C77.0646 26.7736 76.8145 26.0837 76.8145 25.3157V25.2683C76.8145 24.3978 77.139 23.6416 77.7907 22.9981C78.4253 22.365 79.1976 22.0394 80.1065 22.023C81.1254 22.0394 81.9642 22.4501 82.6229 23.2577C83.1317 23.8769 83.3873 24.5546 83.3873 25.2905V34.7089C83.3873 35.1096 83.524 35.4421 83.7989 35.7085C84.0724 35.9834 84.406 36.1208 84.7976 36.1208C85.1826 36.1208 85.5112 35.9834 85.7861 35.7085C86.0678 35.4421 86.2089 35.1096 86.2089 34.7089V20.6126C86.2089 20.2278 86.0678 19.8986 85.7861 19.6242" fill="#4F4C4C"/>
<path d="M119.144 30.9586C118.869 31.241 118.539 31.3826 118.155 31.3826C117.442 31.3826 116.991 31.0369 116.804 30.347C115.801 31.0142 114.699 31.3593 113.499 31.3826H113.464C112.586 31.3671 111.756 31.1903 110.971 30.8536C109.678 30.2811 108.702 29.3439 108.044 28.044C107.581 27.1493 107.35 26.2284 107.35 25.2809C107.35 24.8644 107.393 24.4528 107.48 24.0448C107.808 22.407 108.682 21.1214 110.102 20.1881C111.152 19.4982 112.261 19.1547 113.428 19.1547C113.844 19.1547 114.264 19.1966 114.687 19.2834C114.754 19.2962 114.82 19.3122 114.888 19.3275C114.904 19.3302 114.922 19.3351 114.939 19.3394C114.957 19.3422 114.976 19.3471 114.995 19.3518L114.994 19.3553C115.227 19.4166 115.44 19.5326 115.628 19.7151C115.902 19.997 116.039 20.3306 116.039 20.7138C116.039 21.0986 115.902 21.4314 115.628 21.7133C115.346 21.9881 115.012 22.1258 114.628 22.1258C114.497 22.1258 114.374 22.103 114.255 22.071L114.254 22.0746C113.999 22.0085 113.74 21.9761 113.476 21.9761C113.257 21.9761 113.029 21.999 112.795 22.047C112.041 22.203 111.418 22.587 110.924 23.1986C110.423 23.811 110.172 24.5004 110.172 25.2683V25.3157C110.172 26.1852 110.497 26.9415 111.148 27.5848C111.783 28.2197 112.555 28.5455 113.464 28.5612C114.483 28.5455 115.322 28.1332 115.981 27.3256C116.49 26.7064 116.745 26.0293 116.745 25.2915V15.8731C116.745 15.4735 116.882 15.1411 117.157 14.8748C117.43 14.6 117.764 14.4628 118.155 14.4628C118.539 14.4628 118.869 14.6 119.144 14.8748C119.426 15.1411 119.566 15.4735 119.566 15.8731V29.9716C119.566 30.355 119.426 30.6842 119.144 30.9586" fill="#4F4C4C"/>
<path d="M165.153 30.9951C165.428 31.2768 165.756 31.4174 166.14 31.4174C166.853 31.4174 167.304 31.0727 167.493 30.3829C168.496 31.0491 169.597 31.3946 170.797 31.4174H170.832C171.711 31.4018 172.541 31.2267 173.325 30.8879C174.618 30.3158 175.595 29.3799 176.252 28.079C176.715 27.1848 176.946 26.2637 176.946 25.3157C176.946 24.8993 176.903 24.4885 176.817 24.081C176.488 22.4425 175.614 21.1566 174.194 20.2241C173.145 19.5342 172.035 19.1886 170.867 19.1886C170.452 19.1886 170.033 19.2319 169.609 19.3182C169.542 19.3322 169.476 19.3478 169.409 19.3626C169.391 19.3662 169.376 19.3698 169.357 19.3734C169.339 19.3782 169.32 19.3814 169.301 19.3866L169.302 19.3902C169.068 19.4513 168.856 19.5666 168.669 19.7502C168.394 20.0321 168.257 20.3654 168.257 20.7498C168.257 21.1325 168.394 21.4674 168.669 21.7493C168.951 22.023 169.284 22.161 169.668 22.161C169.799 22.161 169.923 22.1381 170.041 22.1058L170.043 22.1093C170.296 22.0441 170.556 22.011 170.82 22.011C171.04 22.011 171.267 22.035 171.502 22.0818C172.256 22.2385 172.878 22.623 173.373 23.2336C173.873 23.8457 174.124 24.5345 174.124 25.3036V25.3505C174.124 26.2204 173.799 26.9764 173.148 27.6203C172.513 28.2543 171.741 28.5808 170.832 28.5952C169.812 28.5808 168.975 28.168 168.315 27.3611C167.806 26.7413 167.552 26.0643 167.552 25.3273V15.9086C167.552 15.5095 167.415 15.1761 167.14 14.9094C166.866 14.6357 166.532 14.498 166.14 14.498C165.756 14.498 165.428 14.6357 165.153 14.9094C164.871 15.1761 164.729 15.5095 164.729 15.9086V30.0064C164.729 30.3912 164.871 30.7197 165.153 30.9951" fill="#4F4C4C"/>
<path d="M162.954 23.3633V23.2926H162.942V23.2684C162.942 23.2466 162.939 23.23 162.93 23.2218V23.1986C162.93 23.1918 162.923 23.1785 162.906 23.1629V23.1521C162.906 23.1438 162.903 23.1365 162.895 23.1289V23.0932L162.884 23.0814V23.0573C162.875 23.05 162.872 23.0382 162.872 23.0225C162.848 22.9902 162.832 22.9601 162.825 22.9285C162.308 21.8154 161.555 20.9178 160.567 20.2361C159.579 19.5534 158.533 19.2126 157.428 19.2126H157.216C155.962 19.2751 154.837 19.6241 153.841 20.2591C152.806 20.9262 152.055 21.8233 151.584 22.9517C151.263 23.7281 151.102 24.5165 151.102 25.3157C151.102 26.02 151.227 26.7303 151.478 27.4433C151.502 27.5068 151.525 27.5691 151.549 27.6316C151.572 27.6876 151.596 27.7416 151.619 27.796C151.933 28.4943 152.357 29.1087 152.889 29.6428C153.853 30.6071 155.022 31.1824 156.393 31.3707C156.691 31.4018 156.989 31.4174 157.287 31.4174C158.329 31.4174 159.309 31.1592 160.227 30.6424C160.916 30.2499 161.64 29.5526 162.401 28.5482C162.542 28.3216 162.612 28.079 162.612 27.8199C162.612 27.7108 162.601 27.5932 162.578 27.4672C162.491 27.0912 162.284 26.8009 161.954 26.5968C161.727 26.4557 161.481 26.3861 161.213 26.3861C161.104 26.3861 160.995 26.4011 160.884 26.4325C160.509 26.5265 160.215 26.7388 160.002 27.0676C159.587 27.6089 159.199 27.9843 158.839 28.197C158.329 28.4788 157.781 28.619 157.192 28.619H157.087C156.452 28.5879 155.884 28.3996 155.382 28.0547C155.241 27.9689 155.107 27.8667 154.982 27.749C153.82 26.7023 153.936 25.1268 153.936 25.1268C153.967 24.5231 154.151 23.9789 154.488 23.493C155.139 22.5209 156.032 22.035 157.169 22.035C157.342 22.035 157.514 22.047 157.686 22.0705C158.337 22.1569 158.917 22.4346 159.427 22.905L155.57 24.466C155.398 24.5345 155.241 24.6364 155.097 24.778C154.823 25.0588 154.687 25.3913 154.687 25.774C154.687 26.1581 154.823 26.4903 155.097 26.7711C155.379 27.046 155.712 27.1828 156.094 27.1828C156.295 27.1828 156.48 27.1445 156.653 27.0687V27.0696L162.096 24.857C162.104 24.857 162.111 24.8524 162.119 24.8449C162.143 24.8449 162.158 24.8412 162.166 24.8333C162.174 24.8333 162.182 24.8297 162.19 24.8212C162.197 24.8139 162.209 24.8106 162.225 24.8106L162.249 24.7852V24.7744C162.264 24.7744 162.28 24.7705 162.296 24.7625C162.303 24.7625 162.311 24.7584 162.32 24.7505L162.342 24.7393C162.366 24.7156 162.386 24.6999 162.401 24.6929C162.409 24.684 162.42 24.6761 162.437 24.669L162.46 24.6449C162.468 24.6364 162.476 24.6292 162.484 24.621L162.507 24.61L162.519 24.598L162.531 24.575C162.538 24.5668 162.546 24.5593 162.555 24.5514L162.589 24.5272C162.598 24.5117 162.609 24.4961 162.625 24.4804C162.641 24.4729 162.648 24.4649 162.648 24.4571L162.671 24.423L162.683 24.3978L162.719 24.3629L162.731 24.3397C162.739 24.3317 162.747 24.3234 162.754 24.3161C162.761 24.3004 162.766 24.2892 162.766 24.2801C162.782 24.2724 162.789 24.2658 162.789 24.2573L162.801 24.2212L162.812 24.198L162.825 24.1745L162.836 24.1397V24.1277L162.86 24.1049C162.868 24.089 162.872 24.0773 162.872 24.0684C162.879 24.0606 162.884 24.0532 162.884 24.0448L162.895 24.0101C162.895 23.9945 162.899 23.9831 162.906 23.9752V23.9392C162.923 23.9308 162.93 23.9237 162.93 23.916V23.9045C162.939 23.873 162.946 23.8457 162.954 23.8229V23.7519C162.954 23.7354 162.958 23.7245 162.965 23.716V23.4341C162.965 23.4184 162.962 23.3945 162.954 23.3633" fill="#4F4C4C"/>
<path d="M135.687 16.556C135.593 16.3591 135.546 16.1516 135.546 15.9318C135.546 15.7832 135.569 15.6351 135.616 15.4856C135.742 15.1088 135.977 14.8348 136.322 14.6632C136.534 14.5604 136.745 14.5101 136.957 14.5101C137.098 14.5101 137.243 14.5335 137.392 14.5795C137.76 14.7128 138.035 14.9536 138.215 15.2972L140.767 20.4126C140.806 20.4674 140.833 20.5254 140.849 20.589L144 26.8671L149.785 15.2972C149.965 14.9536 150.24 14.7128 150.608 14.5795C150.757 14.5335 150.902 14.5101 151.044 14.5101C151.255 14.5101 151.467 14.5604 151.678 14.6632C152.023 14.8348 152.262 15.1088 152.396 15.4856C152.443 15.6351 152.466 15.7796 152.466 15.9207C152.466 16.1402 152.414 16.3519 152.312 16.556L145.258 30.653C144.984 31.1628 144.564 31.4174 144 31.4174C143.436 31.4174 143.016 31.1628 142.742 30.653L135.687 16.556Z" fill="#4F4C4C"/>
<path d="M139.086 25.2317L136.369 30.653C136.087 31.1548 135.667 31.4111 135.11 31.4174C134.546 31.4174 134.126 31.1628 133.852 30.653L126.798 16.556C126.696 16.3519 126.645 16.1402 126.645 15.9207C126.645 15.7796 126.669 15.6351 126.716 15.4856C126.849 15.1088 127.088 14.8348 127.432 14.6632C127.645 14.5604 127.856 14.5101 128.068 14.5101C128.21 14.5101 128.353 14.5335 128.502 14.5795C128.872 14.7128 129.146 14.9522 129.326 15.2972L135.11 26.8671L137.51 22.0685L139.086 25.2317" fill="#4F4C4C"/>
<path d="M182.226 13.2539L181.479 15.3551H181.202L180.455 13.2592V15.3551H179.975V12.4912H180.573L181.341 14.6192L182.108 12.4912H182.706V15.3551H182.226V13.2539ZM179.554 12.9232H178.77V15.3551H178.285V12.9232H177.495V12.4912H179.554V12.9232Z" fill="#505155"/>
<defs>
<linearGradient id="paint0_linear" x1="17.9518" y1="-1.06358" x2="5.48417" y2="30.5211" gradientUnits="userSpaceOnUse">
<stop stop-color="#5CCAF4"/>
<stop offset="0.0231055" stop-color="#5CCAF4"/>
<stop offset="0.5" stop-color="#4CB8E7"/>
<stop offset="0.99584" stop-color="#0995DD"/>
<stop offset="1" stop-color="#0995DD"/>
</linearGradient>
<linearGradient id="paint1_linear" x1="23.0382" y1="0.936123" x2="10.5861" y2="32.4814" gradientUnits="userSpaceOnUse">
<stop stop-color="#5CCAF4"/>
<stop offset="0.0231055" stop-color="#5CCAF4"/>
<stop offset="0.5" stop-color="#4CB8E7"/>
<stop offset="0.99584" stop-color="#0995DD"/>
<stop offset="1" stop-color="#0995DD"/>
</linearGradient>
<linearGradient id="paint2_linear" x1="35.3076" y1="5.81909" x2="22.8772" y2="37.3093" gradientUnits="userSpaceOnUse">
<stop stop-color="#5CCAF4"/>
<stop offset="0.0231055" stop-color="#5CCAF4"/>
<stop offset="0.5" stop-color="#4CB8E7"/>
<stop offset="0.99584" stop-color="#0995DD"/>
<stop offset="1" stop-color="#0995DD"/>
</linearGradient>
<linearGradient id="paint3_linear" x1="31.7555" y1="4.396" x2="19.3084" y2="35.929" gradientUnits="userSpaceOnUse">
<stop stop-color="#5CCAF4"/>
<stop offset="0.0231055" stop-color="#5CCAF4"/>
<stop offset="0.5" stop-color="#4CB8E7"/>
<stop offset="0.99584" stop-color="#0995DD"/>
<stop offset="1" stop-color="#0995DD"/>
</linearGradient>
<linearGradient id="paint4_linear" x1="32.2746" y1="4.61445" x2="19.8222" y2="36.1607" gradientUnits="userSpaceOnUse">
<stop stop-color="#5CCAF4"/>
<stop offset="0.0231055" stop-color="#5CCAF4"/>
<stop offset="0.5" stop-color="#4CB8E7"/>
<stop offset="0.99584" stop-color="#0995DD"/>
<stop offset="1" stop-color="#0995DD"/>
</linearGradient>
</defs>
</svg>
