<svg width="108" height="46" viewBox="0 0 108 46" fill="none" xmlns="http://www.w3.org/2000/svg">
<path d="M7.59 17.61C7.59 16.44 8.55 15.99 10.14 15.99C12.42 15.99 15.3 16.68 17.58 17.91V10.86C15.09 9.87 12.63 9.48 10.14 9.48C4.05 9.48 0 12.66 0 17.97C0 26.25 11.4 24.93 11.4 28.5C11.4 29.88 10.2 30.33 8.52 30.33C6.03 30.33 2.85 29.31 0.33 27.93V35.07C3.12 36.27 5.94 36.78 8.52 36.78C14.76 36.78 19.05 33.69 19.05 28.32C19.02 19.38 7.59 20.97 7.59 17.61ZM27.87 3.48L20.55 5.04L20.52 29.07C20.52 33.51 23.85 36.78 28.29 36.78C30.75 36.78 32.55 36.33 33.54 35.79V29.7C32.58 30.09 27.84 31.47 27.84 27.03V16.38H33.54V9.99H27.84L27.87 3.48ZM42.87 12.21L42.39 9.99H35.91V36.24H43.41V18.45C45.18 16.14 48.18 16.56 49.11 16.89V9.99C48.15 9.63 44.64 8.97 42.87 12.21ZM50.94 9.99H58.47V36.24H50.94V9.99ZM50.94 7.71L58.47 6.09V-3.8147e-06L50.94 1.59V7.71ZM74.13 9.48C71.19 9.48 69.3 10.86 68.25 11.82L67.86 9.96H61.26V44.94L68.76 43.35L68.79 34.86C69.87 35.64 71.46 36.75 74.1 36.75C79.47 36.75 84.36 32.43 84.36 22.92C84.33 14.22 79.38 9.48 74.13 9.48ZM72.33 30.15C70.56 30.15 69.51 29.52 68.79 28.74L68.76 17.61C69.54 16.74 70.62 16.14 72.33 16.14C75.06 16.14 76.95 19.2 76.95 23.13C76.95 27.15 75.09 30.15 72.33 30.15ZM108 23.22C108 15.54 104.28 9.48 97.17 9.48C90.03 9.48 85.71 15.54 85.71 23.16C85.71 32.19 90.81 36.75 98.13 36.75C101.7 36.75 104.4 35.94 106.44 34.8V28.8C104.4 29.82 102.06 30.45 99.09 30.45C96.18 30.45 93.6 29.43 93.27 25.89H107.94C107.94 25.5 108 23.94 108 23.22ZM93.18 20.37C93.18 16.98 95.25 15.57 97.14 15.57C98.97 15.57 100.92 16.98 100.92 20.37H93.18Z" fill="#6772E5"/>
</svg>
