<svg width="187" height="39" viewBox="0 0 187 39" fill="none" xmlns="http://www.w3.org/2000/svg">
<g clip-path="url(#clip0)">
<path d="M106.304 28.2098H106.013C104.514 28.2098 104.306 27.8351 104.306 25.9201V16.8868H106.304C110.633 16.8868 111.424 20.0502 111.424 22.5064C111.424 25.0459 110.633 28.2098 106.304 28.2098ZM88.7372 22.4229V16.8868H90.4437C92.317 16.8868 93.1499 18.177 93.1499 19.6755C93.1499 21.1328 92.317 22.4229 90.4437 22.4229H88.7372ZM106.179 15.638H98.7279V16.4286C101.059 16.4286 101.433 16.9282 101.433 19.884V25.2126C101.433 28.1681 101.059 28.7093 98.7279 28.7093C96.9381 28.4595 95.7307 27.5018 94.0654 25.6703L92.1509 23.5891C94.7315 23.1309 96.1052 21.5074 96.1052 19.6755C96.1052 17.3864 94.1489 15.638 90.4856 15.638H83.1588V16.4286C85.4898 16.4286 85.8645 16.9282 85.8645 19.884V25.2126C85.8645 28.1681 85.4898 28.7093 83.1588 28.7093V29.4999H91.4429V28.7093C89.1119 28.7093 88.7372 28.1681 88.7372 25.2126V23.714H89.4447L94.0654 29.4999H106.179C112.132 29.4999 114.713 26.3365 114.713 22.5478C114.713 18.7601 112.132 15.638 106.179 15.638" fill="#32373C"/>
<path d="M59.9726 23.9638L62.8448 15.4708C63.6777 13.015 63.303 12.3075 60.6387 12.3075V11.4746H68.4651V12.3075C65.8425 12.3075 65.2181 12.9318 64.1773 15.9708L59.4313 30.2079H58.8903L54.6439 17.1779L50.3149 30.2079H49.7735L45.1529 15.9708C44.1539 12.9318 43.4877 12.3075 41.0732 12.3075V11.4746H50.3149V12.3075C47.8586 12.3075 47.1924 12.8901 48.067 15.4708L50.8557 23.9638L55.0603 11.4746H55.8515L59.9726 23.9638Z" fill="#32373C"/>
<path d="M74.1255 16.3873C70.296 16.3873 68.9636 19.8421 68.9636 22.5478C68.9636 25.2957 70.296 28.7092 74.1255 28.7092C77.9974 28.7092 79.3293 25.2957 79.3293 22.5478C79.3293 19.8421 77.9974 16.3873 74.1255 16.3873ZM74.1255 30.0412C69.5468 30.0412 65.7998 26.6694 65.7998 22.5478C65.7998 18.4685 69.5468 15.0961 74.1255 15.0961C78.705 15.0961 82.4513 18.4685 82.4513 22.5478C82.4513 26.6694 78.705 30.0412 74.1255 30.0412Z" fill="#32373C"/>
<path d="M124.079 12.9732H121.706V20.2168H124.079C126.41 20.2168 127.492 18.5934 127.492 16.637C127.492 14.639 126.41 12.9732 124.079 12.9732ZM124.995 28.6674V29.4999H115.462V28.6674C118.251 28.6674 118.751 27.9599 118.751 23.7967V17.1365C118.751 12.9732 118.251 12.3075 115.462 12.3075V11.4746H124.079C128.367 11.4746 130.74 13.6812 130.74 16.637C130.74 19.5094 128.367 21.7572 124.079 21.7572H121.706V23.7967C121.706 27.9599 122.206 28.6674 124.995 28.6674" fill="#32373C"/>
<path d="M137.276 22.4229V16.8868H138.982C140.855 16.8868 141.688 18.177 141.688 19.6755C141.688 21.1328 140.855 22.4229 138.982 22.4229H137.276ZM159.338 25.5873L159.13 26.3365C158.755 27.7102 158.297 28.2098 155.342 28.2098H154.759C152.594 28.2098 152.22 27.7102 152.22 24.7544V22.8398C155.466 22.8398 155.716 23.1309 155.716 25.2956H156.507V19.0929H155.716C155.716 21.2576 155.466 21.5486 152.22 21.5486V16.8868H154.509C157.465 16.8868 157.922 17.3864 158.297 18.7601L158.505 19.5506H159.171L158.88 15.638H146.641V16.4286C148.972 16.4286 149.347 16.928 149.347 19.884V25.2126C149.347 27.9162 149.028 28.5974 147.191 28.6943C145.444 28.4278 144.244 27.4749 142.604 25.6703L140.689 23.5891C143.27 23.1309 144.644 21.5074 144.644 19.6755C144.644 17.3864 142.687 15.638 139.024 15.638H131.697V16.4286C134.028 16.4286 134.403 16.928 134.403 19.884V25.2126C134.403 28.1679 134.028 28.7093 131.697 28.7093V29.4999H139.981V28.7093C137.65 28.7093 137.276 28.1679 137.276 25.2126V23.714H137.983L142.604 29.4999H159.713L159.962 25.5873H159.338Z" fill="#32373C"/>
<path d="M167.788 30.0412C166.123 30.0412 164.666 29.167 164.042 28.6257C163.834 28.8341 163.459 29.4586 163.376 30.0412H162.585V24.2967H163.417C163.75 27.0441 165.665 28.6675 168.121 28.6675C169.453 28.6675 170.536 27.9182 170.536 26.6694C170.536 25.5872 169.578 24.7543 167.872 23.9637L165.499 22.8398C163.834 22.0483 162.585 20.6746 162.585 18.8432C162.585 16.845 164.458 15.1385 167.039 15.1385C168.413 15.1385 169.578 15.6381 170.286 16.2205C170.494 16.054 170.702 15.5957 170.828 15.0962H171.618V20.0089H170.744C170.452 18.0521 169.37 16.4286 167.164 16.4286C165.998 16.4286 164.916 17.0948 164.916 18.1356C164.916 19.2177 165.79 19.8005 167.788 20.7164L170.078 21.8403C172.076 22.7975 172.867 24.3384 172.867 25.5872C172.867 28.2098 170.577 30.0412 167.788 30.0412Z" fill="#32373C"/>
<path d="M180.376 30.0412C178.711 30.0412 177.253 29.167 176.629 28.6257C176.421 28.8341 176.046 29.4586 175.963 30.0412H175.172V24.2967H176.005C176.338 27.0441 178.252 28.6675 180.709 28.6675C182.041 28.6675 183.123 27.9182 183.123 26.6694C183.123 25.5872 182.165 24.7543 180.459 23.9637L178.086 22.8398C176.421 22.0483 175.172 20.6746 175.172 18.8432C175.172 16.845 177.045 15.1385 179.627 15.1385C181 15.1385 182.165 15.6381 182.873 16.2205C183.082 16.054 183.29 15.5957 183.414 15.0962H184.205V20.0089H183.331C183.04 18.0521 181.958 16.4286 179.751 16.4286C178.586 16.4286 177.503 17.0948 177.503 18.1356C177.503 19.2177 178.377 19.8005 180.376 20.7164L182.665 21.8403C184.664 22.7975 185.454 24.3384 185.454 25.5872C185.454 28.2098 183.165 30.0412 180.376 30.0412Z" fill="#32373C"/>
<path d="M20.4665 1.73328C10.1205 1.73328 1.73325 10.1205 1.73325 20.4665C1.73325 30.8126 10.1205 39.1998 20.4665 39.1998C30.8126 39.1998 39.1998 30.8126 39.1998 20.4665C39.1998 10.1205 30.8126 1.73328 20.4665 1.73328ZM20.4665 2.85733C22.8442 2.85733 25.1503 3.32265 27.3206 4.24065C28.3636 4.68181 29.3699 5.22796 30.3112 5.86396C31.2439 6.49412 32.121 7.21775 32.9181 8.01496C33.7153 8.81202 34.4389 9.68912 35.0691 10.6218C35.7051 11.5632 36.2512 12.5694 36.6924 13.6125C37.6104 15.7828 38.0757 18.0888 38.0757 20.4665C38.0757 22.8443 37.6104 25.1503 36.6924 27.3206C36.2512 28.3636 35.7051 29.3699 35.0691 30.3113C34.4389 31.244 33.7153 32.1211 32.9181 32.9181C32.121 33.7153 31.2439 34.439 30.3112 35.0691C29.3699 35.7051 28.3636 36.2513 27.3206 36.6924C25.1503 37.6104 22.8442 38.0758 20.4665 38.0758C18.0888 38.0758 15.7827 37.6104 13.6126 36.6924C12.5694 36.2513 11.5631 35.7051 10.6218 35.0691C9.68909 34.439 8.81198 33.7153 8.01493 32.9181C7.21772 32.1211 6.49409 31.244 5.86393 30.3113C5.22809 29.3699 4.68177 28.3636 4.24061 27.3206C3.32261 25.1503 2.8573 22.8443 2.8573 20.4665C2.8573 18.0888 3.32261 15.7828 4.24061 13.6125C4.68177 12.5694 5.22809 11.5632 5.86393 10.6218C6.49409 9.68912 7.21772 8.81202 8.01493 8.01496C8.81198 7.21775 9.68909 6.49412 10.6218 5.86396C11.5631 5.22796 12.5694 4.68181 13.6126 4.24065C15.7827 3.32265 18.0888 2.85733 20.4665 2.85733" fill="#32373C"/>
<path d="M34.1658 12.9769C34.2327 13.4741 34.2708 14.0075 34.2708 14.5821C34.2708 16.1656 33.9741 17.9464 33.0832 20.1733L28.3153 33.9591C32.9564 31.2532 36.0775 26.2251 36.0775 20.466C36.0775 17.7518 35.3841 15.2003 34.1658 12.9769ZM20.7408 21.8315L16.0562 35.4416C17.4553 35.853 18.9343 36.0776 20.4665 36.0776C22.2845 36.0776 24.0284 35.7638 25.651 35.1926C25.6091 35.1258 25.5706 35.0549 25.5389 34.9774L20.7408 21.8315ZM31.0053 19.6786C31.0053 17.7487 30.312 16.413 29.7183 15.3735C28.927 14.0869 28.1849 12.9986 28.1849 11.712C28.1849 10.2773 29.2729 8.94146 30.8064 8.94146C30.8757 8.94146 30.9412 8.94983 31.0085 8.95409C28.2311 6.4093 24.5307 4.85546 20.4665 4.85546C15.0123 4.85546 10.2145 7.65399 7.42296 11.8916C7.7896 11.9031 8.13491 11.9105 8.42781 11.9105C10.0603 11.9105 12.5885 11.712 12.5885 11.712C13.4296 11.6628 13.5291 12.8991 12.6883 12.9986C12.6883 12.9986 11.8423 13.0976 10.9017 13.1468L16.5864 30.0564L20.0032 19.8106L17.5712 13.1468C16.7301 13.0976 15.9338 12.9986 15.9338 12.9986C15.0922 12.9488 15.1909 11.6628 16.0328 11.712C16.0328 11.712 18.6103 11.9105 20.1442 11.9105C21.7767 11.9105 24.3054 11.712 24.3054 11.712C25.1468 11.6628 25.2458 12.8991 24.4047 12.9986C24.4047 12.9986 23.5579 13.0976 22.6183 13.1468L28.2599 29.9277L29.8704 24.8246C30.5858 22.5945 31.0053 21.0144 31.0053 19.6786V19.6786ZM4.85544 20.466C4.85544 26.6449 8.44612 31.9851 13.6541 34.5152L6.20718 14.1128C5.34097 16.0541 4.85544 18.2026 4.85544 20.466" fill="#32373C"/>
</g>
<defs>
<clipPath id="clip0">
<rect width="187" height="39" fill="white"/>
</clipPath>
</defs>
</svg>
