<svg width="170" height="55" viewBox="0 0 170 55" fill="none" xmlns="http://www.w3.org/2000/svg">
<path d="M73.537 12.2456C73.537 12.2456 75.2196 17.2384 76.1135 19.5509H78.2168L79.9258 14.9522L81.477 19.5509H83.8958C83.8958 19.5509 85.631 14.085 86.1568 12.2456H83.6855L82.6338 16.7391L81.3718 12.2456H78.6375L77.1915 16.4763L76.0872 12.2456H73.537V12.2456Z" fill="#1F7FBD"/>
<path d="M89.1803 12.2456H86.9193V19.5509H89.1803V12.2456Z" fill="#1F7FBD"/>
<path d="M88.8385 16.8968C92.6245 17.3435 94.3334 15.6354 94.3334 14.3478C94.3334 12.2981 92.1776 11.6675 86.9193 12.2193L88.786 13.6646C88.786 13.6646 92.1513 13.0602 92.1513 14.4529C92.1513 15.8194 89.1015 15.6092 88.8648 15.5303L88.8385 16.8968Z" fill="#1F7FBD"/>
<path d="M98.7767 12.2456C98.9345 14.2953 98.8293 16.9494 98.7767 19.5509H100.88V12.2456H98.7767Z" fill="#1F7FBD"/>
<path d="M100.039 13.5332C101.011 13.2179 103.351 12.9025 103.351 14.0062C103.351 15.1887 100.617 15.0836 100.617 15.0836V16.3712C100.617 16.3712 103.641 15.9245 103.641 17.1859C103.641 18.4472 100.617 18.1056 100.617 18.1056L98.803 19.5509C99.6706 19.7874 106.059 20.1553 106.059 17.2647C106.059 15.8194 103.851 15.5829 103.851 15.5829C104.088 15.5829 105.323 15.0573 105.323 14.0062C105.323 12.5609 103.825 11.431 98.803 12.2193L100.039 13.5332Z" fill="#1F7FBD"/>
<path d="M121.519 12.6923C118.548 11.8514 115.577 12.4295 115.577 14.3215C115.577 16.3187 119.573 16.3975 119.573 17.58C119.573 18.526 116.707 17.7377 116.366 17.4486L115.472 19.0253C116.576 19.5772 121.834 20.1816 121.834 17.58C121.834 15.215 117.891 15.7406 117.891 14.4267C117.891 13.0865 120.783 13.9537 120.783 13.9537L121.519 12.6923Z" fill="#1F7FBD"/>
<path d="M122.86 12.2456V19.5509H125.2V12.2456H122.86Z" fill="#1F7FBD"/>
<path d="M129.327 12.2456H127.066V19.5509H129.327V12.2456Z" fill="#1F7FBD"/>
<path d="M129.222 15.215L133.061 19.5509L133.166 16.6603L129.327 12.2456L129.222 15.215Z" fill="#1F7FBD"/>
<path d="M135.322 12.2456H133.061V19.5509H135.322V12.2456Z" fill="#1F7FBD"/>
<path d="M139.16 12.2456H136.899V19.5509H139.16V12.2456Z" fill="#1F7FBD"/>
<path d="M138.687 13.6383H142.815V12.2456H138.924L138.687 13.6383Z" fill="#1F7FBD"/>
<path d="M138.687 15.1362H142.368L141.816 16.5815H138.687V15.1362Z" fill="#1F7FBD"/>
<path d="M138.608 18.1319H142.815V19.5509H138.372L138.608 18.1319Z" fill="#1F7FBD"/>
<path d="M149.598 12.6923C146.627 11.8514 143.656 12.4295 143.656 14.3215C143.656 16.3187 147.652 16.3975 147.652 17.58C147.652 18.526 144.787 17.7377 144.445 17.4486L143.551 19.0253C144.655 19.5772 149.913 20.1816 149.913 17.58C149.913 15.215 145.97 15.7406 145.97 14.4267C145.97 13.0865 148.862 13.9537 148.862 13.9537L149.598 12.6923Z" fill="#1F7FBD"/>
<path d="M156.25 12.6923C153.279 11.8514 150.308 12.4295 150.308 14.3215C150.308 16.3187 154.304 16.3975 154.304 17.58C154.304 18.526 151.438 17.7377 151.097 17.4486L150.203 19.0253C151.307 19.5772 156.565 20.1816 156.565 17.58C156.565 15.215 152.621 15.7406 152.621 14.4267C152.621 13.0865 155.513 13.9537 155.513 13.9537L156.25 12.6923Z" fill="#1F7FBD"/>
<path d="M57.21 16.8442C57.21 16.8442 52.7142 29.8782 44.3798 38.2083C45.8784 45.172 51.2156 38.3397 55.6851 30.2723C59.6288 23.1247 62.3894 16.2398 57.21 16.8442Z" fill="#2B3E51"/>
<path d="M84.3953 21.7057C84.3953 21.7057 89.8902 19.5509 89.8902 23.1773C89.8902 25.9102 83.37 34.7133 86.4198 35.2126C89.8902 35.7645 94.5701 26.3569 94.5701 20.5232C94.5701 20.5232 99.1185 19.5246 98.8293 23.8079C98.4875 28.9059 92.3616 39.312 84.816 39.312C82.6338 39.312 80.3727 37.5776 80.3727 35.1601C80.399 30.4563 83.738 28.6168 84.3953 21.7057Z" fill="#2B3E51"/>
<path d="M122.465 28.0124C119.968 33.1629 116.55 35.2389 114.473 35.2389C113.158 35.2389 112.527 34.0301 113.211 31.7702C121.598 30.9293 124.095 21.075 118.679 21.075C113.736 21.075 107.164 28.4329 107.164 34.1615C107.164 37.2623 108.82 39.3645 112.212 39.3645C119.705 39.3645 123.701 28.9322 123.701 28.9322L122.465 28.0124ZM118.101 23.8079C119.783 23.8079 117.075 28.8533 113.894 28.9059C114.42 27.1715 116.734 23.8079 118.101 23.8079Z" fill="#2B3E51"/>
<path d="M124.227 21.7582C123.938 27.5394 120.152 30.43 120.152 35.3177C120.152 37.3674 121.282 39.312 124.174 39.312C127.513 39.312 130.169 36.4477 130.8 34.9761C130.537 36.1323 131.983 39.3383 135.506 39.3383C146.127 39.3383 150.834 16.8442 142.026 21.1276C143.209 25.7788 141.316 34.4768 137.294 35.2914C136.163 35.528 135.558 34.4506 135.663 33.3731C136.189 27.1715 144.103 18.9202 133.087 21.8634C133.35 26.4095 129.669 35.2914 126.777 35.2914C122.229 35.2652 137.294 17.8428 124.227 21.7582Z" fill="#2B3E51"/>
<path d="M83.0545 27.2241C80.399 32.7688 76.9286 35.2389 75.0356 35.2389C73.5633 35.2389 72.8797 34.1352 73.6159 31.7702C82.0028 30.9293 84.5005 21.075 79.0845 21.075C74.1417 21.075 67.5688 28.4329 67.5688 34.1615C67.5688 37.2623 69.2252 39.3645 72.6168 39.3645C80.1098 39.3645 83.9484 30.1147 84.1061 28.9322L83.0545 27.2241ZM78.4798 23.8079C80.1624 23.8079 77.4544 28.8533 74.2731 28.9059C74.799 27.1715 77.1126 23.8079 78.4798 23.8079Z" fill="#2B3E51"/>
<path d="M108.767 22.5203C108.794 22.5203 108.242 20.3392 105.56 21.5217C101.669 23.2298 97.4359 29.8782 97.4359 34.6871C97.4359 37.1309 98.3298 39.0492 100.854 39.2332C105.665 39.5748 109.451 32.6374 110.135 29.8782L109.03 28.2489C109.03 28.2489 105.56 35.2389 103.562 35.2389C101.09 35.2389 106.375 24.9904 108.767 22.5203Z" fill="#2B3E51"/>
<path d="M56.9997 27.6708C56.9997 27.6708 57.4992 28.354 57.7359 30.6402C58.4194 37.4988 61.3115 47.3268 69.3829 47.3268C74.2994 47.3268 74.8778 42.7544 74.8778 41.0463C74.8778 41.0463 73.4844 42.4128 70.1191 42.4128C67.1745 42.4128 61.1011 39.7324 60.4439 28.6694L56.9997 27.6708Z" fill="#2B3E51"/>
<path d="M112.475 12.2456C112.475 12.2456 112.501 15.7143 112.501 16.8705C112.501 18.0268 111.134 18.1319 110.66 18.1319C110.187 18.1319 109.267 17.8428 109.267 16.9494V12.2193H107.006C107.006 12.2193 106.98 14.8471 106.98 16.9231C106.98 18.4209 108.478 19.5509 110.792 19.5509C112.764 19.5509 114.709 18.4472 114.709 16.8968V12.2456H112.475Z" fill="#1F7FBD"/>
<path d="M151.491 31.087C151.438 33.3731 150.939 34.9761 149.125 34.871C147.048 34.7659 147.784 31.6913 148.047 31.2972C143.682 32.7687 143.656 39.0229 148.704 39.312C152.28 39.5222 154.83 36.6316 155.093 33.268C155.172 32.2432 154.988 31.2183 154.804 30.2198C153.62 30.7716 152.253 31.0081 151.491 31.087ZM156.775 21.1013C154.225 21.1013 151.675 23.0196 151.438 27.0401C149.756 26.1204 149.913 23.9919 149.913 23.9919C147.81 25.2795 147.495 29.4577 151.517 30.2461C153.174 30.5351 154.567 30.2461 154.804 30.1935C160.719 28.8796 161.245 21.1013 156.775 21.1013ZM154.357 27.408C154.383 24.9904 155.592 23.5189 156.539 23.5189C158.327 23.4926 157.617 26.8562 154.357 27.408Z" fill="#2B3E51"/>
<path d="M60.4702 10.9317C43.8014 10.9317 39.4634 30.6402 49.8222 28.4854C46.8775 23.1247 52.2147 14.5318 60.0495 14.5318C71.6966 14.5318 68.6994 26.3832 60.0495 26.3832C58.5509 26.3832 57.4467 25.7788 56.9734 25.2532L56.6579 26.9876C56.6579 26.9876 57.21 28.5117 59.3396 28.9322C73.6159 31.7702 77.4281 10.9317 60.4702 10.9317Z" fill="#2B3E51"/>
<path d="M26.5806 11.6937C47.1141 12.1667 42.6446 37.9193 20.0077 39.128L19.6396 43.2012C19.6396 43.2012 16.6687 42.0449 15.4593 39.2857C8.7813 38.4185 6.3362 34.1089 6.25732 28.9584C6.25732 27.408 6.49395 25.9365 6.91461 24.5174C6.9409 24.4649 6.9409 24.4123 6.96719 24.3598C6.99348 24.2809 7.01977 24.1758 7.04607 24.097C7.17752 23.6765 7.33527 23.2824 7.49302 22.8619C7.49302 22.8356 7.51931 22.8094 7.51931 22.8094C7.59818 22.6517 7.65077 22.494 7.72964 22.3364C11.3053 14.4792 21.0594 9.56522 32.2858 12.5609" fill="#999999"/>
<path d="M25.4237 12.4032C44.5639 12.85 39.9629 36.947 18.8509 38.0769L18.6668 41.7296C18.6668 41.7296 17.0105 40.5208 15.88 37.9718C8.80759 37.4988 7.28269 33.4257 7.2301 28.6431C7.2301 27.1978 7.44043 25.8313 7.8348 24.4912C7.8611 24.4386 7.8611 24.386 7.88739 24.3335C7.91368 24.2547 7.93997 24.1758 7.96626 24.0707C8.09772 23.6765 8.22917 23.3086 8.38692 22.9408C8.38692 22.9145 8.41321 22.9145 8.41321 22.8882C8.4658 22.7305 8.51838 22.5729 8.59725 22.4415C12.1466 16.3975 17.4049 12.666 25.4237 12.4032Z" fill="white"/>
<path d="M16.3007 25.1218L15.8537 27.0927L14.5392 25.8839L12.2255 27.0927L13.3561 25.043L12.4884 23.7291L14.7495 23.5714L16.4059 21.8634L16.5636 23.5714L18.3251 23.8079L16.3007 25.1218Z" fill="#EF4A35"/>
<path d="M24.8453 25.3321L24.1354 28.2752L22.1899 26.462L18.7194 28.2752L20.4284 25.2007L19.1401 23.2561L22.5054 22.9933L24.9768 20.4706L25.2397 23.0196L27.8688 23.3875L24.8453 25.3321Z" fill="#EF4A35"/>
<path d="M32.4698 24.9379L32.0229 26.8825L30.7083 25.6737L28.3947 26.8825L29.5252 24.8328L28.6576 23.5452L30.9186 23.3612L32.575 21.6794L32.759 23.3875L34.4943 23.624L32.4698 24.9379Z" fill="#EF4A35"/>
</svg>
